<?xml version="1.0" encoding="utf-8" standalone="no"?>
<!DOCTYPE svg PUBLIC "-//W3C//DTD SVG 1.1//EN"
  "http://www.w3.org/Graphics/SVG/1.1/DTD/svg11.dtd">
<svg xmlns:xlink="http://www.w3.org/1999/xlink" width="720pt" height="288pt" viewBox="0 0 720 288" xmlns="http://www.w3.org/2000/svg" version="1.1">
 <metadata>
  <rdf:RDF xmlns:dc="http://purl.org/dc/elements/1.1/" xmlns:cc="http://creativecommons.org/ns#" xmlns:rdf="http://www.w3.org/1999/02/22-rdf-syntax-ns#">
   <cc:Work>
    <dc:type rdf:resource="http://purl.org/dc/dcmitype/StillImage"/>
    <dc:date>2026-10-03T21:17:50.800003</dc:date>
    <dc:format>image/svg+xml</dc:format>
    <dc:creator>
     <cc:Agent>
      <dc:title>Matplotlib v3.11.0, https://matplotlib.org/</dc:title>
     </cc:Agent>
    </dc:creator>
   </cc:Work>
  </rdf:RDF>
 </metadata>
 <defs>
  <style type="text/css">*{stroke-linejoin: round; stroke-linecap: butt}</style>
 </defs>
 <g id="figure_1">
  <g id="patch_1">
   <path d="M 0 288 
L 720 288 
L 720 0 
L 0 0 
z
" style="fill: #ffffff"/>
  </g>
  <g id="axes_1">
   <g id="patch_2">
    <path d="M 74.723381 177.96535 
L 709.2 177.96535 
L 709.2 10.8 
L 74.723381 10.8 
z
" style="fill: #ffffff"/>
   </g>
   <g id="matplotlib.axis_1">
    <g id="xtick_1">
     <g id="line2d_1">
      <defs>
       <path id="m41a0984935" d="M 0 0 
L 0 3.5 
" style="stroke: #000000; stroke-width: 0.8"/>
      </defs>
      <g>
       <use xlink:href="#m41a0984935" x="103.563227" y="177.96535" style="stroke: #000000; stroke-width: 0.8"/>
      </g>
     </g>
     <g id="text_1">
      <!-- captured_decode -->
      <g transform="translate(21.169959 235.535317) rotate(-30) scale(0.1 -0.1)">
       <defs>
        <path id="DejaVuSans-46" d="M 3122 3366 
L 3122 2828 
Q 2878 2963 2633 3030 
Q 2388 3097 2138 3097 
Q 1578 3097 1268 2742 
Q 959 2388 959 1747 
Q 959 1106 1268 751 
Q 1578 397 2138 397 
Q 2388 397 2633 464 
Q 2878 531 3122 666 
L 3122 134 
Q 2881 22 2623 -34 
Q 2366 -91 2075 -91 
Q 1284 -91 818 406 
Q 353 903 353 1747 
Q 353 2603 823 3093 
Q 1294 3584 2113 3584 
Q 2378 3584 2631 3529 
Q 2884 3475 3122 3366 
z
" transform="scale(0.015625)"/>
        <path id="DejaVuSans-44" d="M 2194 1759 
Q 1497 1759 1228 1600 
Q 959 1441 959 1056 
Q 959 750 1161 570 
Q 1363 391 1709 391 
Q 2188 391 2477 730 
Q 2766 1069 2766 1631 
L 2766 1759 
L 2194 1759 
z
M 3341 1997 
L 3341 0 
L 2766 0 
L 2766 531 
Q 2569 213 2275 61 
Q 1981 -91 1556 -91 
Q 1019 -91 701 211 
Q 384 513 384 1019 
Q 384 1609 779 1909 
Q 1175 2209 1959 2209 
L 2766 2209 
L 2766 2266 
Q 2766 2663 2505 2880 
Q 2244 3097 1772 3097 
Q 1472 3097 1187 3025 
Q 903 2953 641 2809 
L 641 3341 
Q 956 3463 1253 3523 
Q 1550 3584 1831 3584 
Q 2591 3584 2966 3190 
Q 3341 2797 3341 1997 
z
" transform="scale(0.015625)"/>
        <path id="DejaVuSans-53" d="M 1159 525 
L 1159 -1331 
L 581 -1331 
L 581 3500 
L 1159 3500 
L 1159 2969 
Q 1341 3281 1617 3432 
Q 1894 3584 2278 3584 
Q 2916 3584 3314 3078 
Q 3713 2572 3713 1747 
Q 3713 922 3314 415 
Q 2916 -91 2278 -91 
Q 1894 -91 1617 61 
Q 1341 213 1159 525 
z
M 3116 1747 
Q 3116 2381 2855 2742 
Q 2594 3103 2138 3103 
Q 1681 3103 1420 2742 
Q 1159 2381 1159 1747 
Q 1159 1113 1420 752 
Q 1681 391 2138 391 
Q 2594 391 2855 752 
Q 3116 1113 3116 1747 
z
" transform="scale(0.015625)"/>
        <path id="DejaVuSans-57" d="M 1172 4494 
L 1172 3500 
L 2356 3500 
L 2356 3053 
L 1172 3053 
L 1172 1153 
Q 1172 725 1289 603 
Q 1406 481 1766 481 
L 2356 481 
L 2356 0 
L 1766 0 
Q 1100 0 847 248 
Q 594 497 594 1153 
L 594 3053 
L 172 3053 
L 172 3500 
L 594 3500 
L 594 4494 
L 1172 4494 
z
" transform="scale(0.015625)"/>
        <path id="DejaVuSans-58" d="M 544 1381 
L 544 3500 
L 1119 3500 
L 1119 1403 
Q 1119 906 1312 657 
Q 1506 409 1894 409 
Q 2359 409 2629 706 
Q 2900 1003 2900 1516 
L 2900 3500 
L 3475 3500 
L 3475 0 
L 2900 0 
L 2900 538 
Q 2691 219 2414 64 
Q 2138 -91 1772 -91 
Q 1169 -91 856 284 
Q 544 659 544 1381 
z
M 1991 3584 
L 1991 3584 
z
" transform="scale(0.015625)"/>
        <path id="DejaVuSans-55" d="M 2631 2963 
Q 2534 3019 2420 3045 
Q 2306 3072 2169 3072 
Q 1681 3072 1420 2755 
Q 1159 2438 1159 1844 
L 1159 0 
L 581 0 
L 581 3500 
L 1159 3500 
L 1159 2956 
Q 1341 3275 1631 3429 
Q 1922 3584 2338 3584 
Q 2397 3584 2469 3576 
Q 2541 3569 2628 3553 
L 2631 2963 
z
" transform="scale(0.015625)"/>
        <path id="DejaVuSans-48" d="M 3597 1894 
L 3597 1613 
L 953 1613 
Q 991 1019 1311 708 
Q 1631 397 2203 397 
Q 2534 397 2845 478 
Q 3156 559 3463 722 
L 3463 178 
Q 3153 47 2828 -22 
Q 2503 -91 2169 -91 
Q 1331 -91 842 396 
Q 353 884 353 1716 
Q 353 2575 817 3079 
Q 1281 3584 2069 3584 
Q 2775 3584 3186 3129 
Q 3597 2675 3597 1894 
z
M 3022 2063 
Q 3016 2534 2758 2815 
Q 2500 3097 2075 3097 
Q 1594 3097 1305 2825 
Q 1016 2553 972 2059 
L 3022 2063 
z
" transform="scale(0.015625)"/>
        <path id="DejaVuSans-47" d="M 2906 2969 
L 2906 4863 
L 3481 4863 
L 3481 0 
L 2906 0 
L 2906 525 
Q 2725 213 2448 61 
Q 2172 -91 1784 -91 
Q 1150 -91 751 415 
Q 353 922 353 1747 
Q 353 2572 751 3078 
Q 1150 3584 1784 3584 
Q 2172 3584 2448 3432 
Q 2725 3281 2906 2969 
z
M 947 1747 
Q 947 1113 1208 752 
Q 1469 391 1925 391 
Q 2381 391 2643 752 
Q 2906 1113 2906 1747 
Q 2906 2381 2643 2742 
Q 2381 3103 1925 3103 
Q 1469 3103 1208 2742 
Q 947 2381 947 1747 
z
" transform="scale(0.015625)"/>
        <path id="DejaVuSans-42" d="M 3263 -1063 
L 3263 -1509 
L -63 -1509 
L -63 -1063 
L 3263 -1063 
z
" transform="scale(0.015625)"/>
        <path id="DejaVuSans-52" d="M 1959 3097 
Q 1497 3097 1228 2736 
Q 959 2375 959 1747 
Q 959 1119 1226 758 
Q 1494 397 1959 397 
Q 2419 397 2687 759 
Q 2956 1122 2956 1747 
Q 2956 2369 2687 2733 
Q 2419 3097 1959 3097 
z
M 1959 3584 
Q 2709 3584 3137 3096 
Q 3566 2609 3566 1747 
Q 3566 888 3137 398 
Q 2709 -91 1959 -91 
Q 1206 -91 779 398 
Q 353 888 353 1747 
Q 353 2609 779 3096 
Q 1206 3584 1959 3584 
z
" transform="scale(0.015625)"/>
       </defs>
       <use xlink:href="#DejaVuSans-46"/>
       <use xlink:href="#DejaVuSans-44" transform="translate(54.984375 0)"/>
       <use xlink:href="#DejaVuSans-53" transform="translate(116.265625 0)"/>
       <use xlink:href="#DejaVuSans-57" transform="translate(179.75 0)"/>
       <use xlink:href="#DejaVuSans-58" transform="translate(218.953125 0)"/>
       <use xlink:href="#DejaVuSans-55" transform="translate(282.328125 0)"/>
       <use xlink:href="#DejaVuSans-48" transform="translate(321.234375 0)"/>
       <use xlink:href="#DejaVuSans-47" transform="translate(382.765625 0)"/>
       <use xlink:href="#DejaVuSans-42" transform="translate(446.25 0)"/>
       <use xlink:href="#DejaVuSans-47" transform="translate(496.25 0)"/>
       <use xlink:href="#DejaVuSans-48" transform="translate(559.734375 0)"/>
       <use xlink:href="#DejaVuSans-46" transform="translate(621.265625 0)"/>
       <use xlink:href="#DejaVuSans-52" transform="translate(676.25 0)"/>
       <use xlink:href="#DejaVuSans-47" transform="translate(737.4375 0)"/>
       <use xlink:href="#DejaVuSans-48" transform="translate(800.921875 0)"/>
      </g>
      <!-- T=2 -->
      <g transform="translate(83.804937 213.231657) rotate(-30) scale(0.1 -0.1)">
       <defs>
        <path id="DejaVuSans-37" d="M -19 4666 
L 3928 4666 
L 3928 4134 
L 2272 4134 
L 2272 0 
L 1638 0 
L 1638 4134 
L -19 4134 
L -19 4666 
z
" transform="scale(0.015625)"/>
        <path id="DejaVuSans-20" d="M 678 2906 
L 4684 2906 
L 4684 2381 
L 678 2381 
L 678 2906 
z
M 678 1631 
L 4684 1631 
L 4684 1100 
L 678 1100 
L 678 1631 
z
" transform="scale(0.015625)"/>
        <path id="DejaVuSans-15" d="M 1228 531 
L 3431 531 
L 3431 0 
L 469 0 
L 469 531 
Q 828 903 1448 1529 
Q 2069 2156 2228 2338 
Q 2531 2678 2651 2914 
Q 2772 3150 2772 3378 
Q 2772 3750 2511 3984 
Q 2250 4219 1831 4219 
Q 1534 4219 1204 4116 
Q 875 4013 500 3803 
L 500 4441 
Q 881 4594 1212 4672 
Q 1544 4750 1819 4750 
Q 2544 4750 2975 4387 
Q 3406 4025 3406 3419 
Q 3406 3131 3298 2873 
Q 3191 2616 2906 2266 
Q 2828 2175 2409 1742 
Q 1991 1309 1228 531 
z
" transform="scale(0.015625)"/>
       </defs>
       <use xlink:href="#DejaVuSans-37"/>
       <use xlink:href="#DejaVuSans-20" transform="translate(61.078125 0)"/>
       <use xlink:href="#DejaVuSans-15" transform="translate(144.875 0)"/>
      </g>
     </g>
    </g>
    <g id="xtick_2">
     <g id="line2d_2">
      <g>
       <use xlink:href="#m41a0984935" x="151.629638" y="177.96535" style="stroke: #000000; stroke-width: 0.8"/>
      </g>
     </g>
     <g id="text_2">
      <!-- captured_decode -->
      <g transform="translate(69.23637 235.535317) rotate(-30) scale(0.1 -0.1)">
       <use xlink:href="#DejaVuSans-46"/>
       <use xlink:href="#DejaVuSans-44" transform="translate(54.984375 0)"/>
       <use xlink:href="#DejaVuSans-53" transform="translate(116.265625 0)"/>
       <use xlink:href="#DejaVuSans-57" transform="translate(179.75 0)"/>
       <use xlink:href="#DejaVuSans-58" transform="translate(218.953125 0)"/>
       <use xlink:href="#DejaVuSans-55" transform="translate(282.328125 0)"/>
       <use xlink:href="#DejaVuSans-48" transform="translate(321.234375 0)"/>
       <use xlink:href="#DejaVuSans-47" transform="translate(382.765625 0)"/>
       <use xlink:href="#DejaVuSans-42" transform="translate(446.25 0)"/>
       <use xlink:href="#DejaVuSans-47" transform="translate(496.25 0)"/>
       <use xlink:href="#DejaVuSans-48" transform="translate(559.734375 0)"/>
       <use xlink:href="#DejaVuSans-46" transform="translate(621.265625 0)"/>
       <use xlink:href="#DejaVuSans-52" transform="translate(676.25 0)"/>
       <use xlink:href="#DejaVuSans-47" transform="translate(737.4375 0)"/>
       <use xlink:href="#DejaVuSans-48" transform="translate(800.921875 0)"/>
      </g>
      <!-- T=4 -->
      <g transform="translate(131.871348 213.231657) rotate(-30) scale(0.1 -0.1)">
       <defs>
        <path id="DejaVuSans-17" d="M 2419 4116 
L 825 1625 
L 2419 1625 
L 2419 4116 
z
M 2253 4666 
L 3047 4666 
L 3047 1625 
L 3713 1625 
L 3713 1100 
L 3047 1100 
L 3047 0 
L 2419 0 
L 2419 1100 
L 313 1100 
L 313 1709 
L 2253 4666 
z
" transform="scale(0.015625)"/>
       </defs>
       <use xlink:href="#DejaVuSans-37"/>
       <use xlink:href="#DejaVuSans-20" transform="translate(61.078125 0)"/>
       <use xlink:href="#DejaVuSans-17" transform="translate(144.875 0)"/>
      </g>
     </g>
    </g>
    <g id="xtick_3">
     <g id="line2d_3">
      <g>
       <use xlink:href="#m41a0984935" x="199.696048" y="177.96535" style="stroke: #000000; stroke-width: 0.8"/>
      </g>
     </g>
     <g id="text_3">
      <!-- captured_decode -->
      <g transform="translate(117.30278 235.535317) rotate(-30) scale(0.1 -0.1)">
       <use xlink:href="#DejaVuSans-46"/>
       <use xlink:href="#DejaVuSans-44" transform="translate(54.984375 0)"/>
       <use xlink:href="#DejaVuSans-53" transform="translate(116.265625 0)"/>
       <use xlink:href="#DejaVuSans-57" transform="translate(179.75 0)"/>
       <use xlink:href="#DejaVuSans-58" transform="translate(218.953125 0)"/>
       <use xlink:href="#DejaVuSans-55" transform="translate(282.328125 0)"/>
       <use xlink:href="#DejaVuSans-48" transform="translate(321.234375 0)"/>
       <use xlink:href="#DejaVuSans-47" transform="translate(382.765625 0)"/>
       <use xlink:href="#DejaVuSans-42" transform="translate(446.25 0)"/>
       <use xlink:href="#DejaVuSans-47" transform="translate(496.25 0)"/>
       <use xlink:href="#DejaVuSans-48" transform="translate(559.734375 0)"/>
       <use xlink:href="#DejaVuSans-46" transform="translate(621.265625 0)"/>
       <use xlink:href="#DejaVuSans-52" transform="translate(676.25 0)"/>
       <use xlink:href="#DejaVuSans-47" transform="translate(737.4375 0)"/>
       <use xlink:href="#DejaVuSans-48" transform="translate(800.921875 0)"/>
      </g>
      <!-- T=8 -->
      <g transform="translate(179.937759 213.231657) rotate(-30) scale(0.1 -0.1)">
       <defs>
        <path id="DejaVuSans-1b" d="M 2034 2216 
Q 1584 2216 1326 1975 
Q 1069 1734 1069 1313 
Q 1069 891 1326 650 
Q 1584 409 2034 409 
Q 2484 409 2743 651 
Q 3003 894 3003 1313 
Q 3003 1734 2745 1975 
Q 2488 2216 2034 2216 
z
M 1403 2484 
Q 997 2584 770 2862 
Q 544 3141 544 3541 
Q 544 4100 942 4425 
Q 1341 4750 2034 4750 
Q 2731 4750 3128 4425 
Q 3525 4100 3525 3541 
Q 3525 3141 3298 2862 
Q 3072 2584 2669 2484 
Q 3125 2378 3379 2068 
Q 3634 1759 3634 1313 
Q 3634 634 3220 271 
Q 2806 -91 2034 -91 
Q 1263 -91 848 271 
Q 434 634 434 1313 
Q 434 1759 690 2068 
Q 947 2378 1403 2484 
z
M 1172 3481 
Q 1172 3119 1398 2916 
Q 1625 2713 2034 2713 
Q 2441 2713 2670 2916 
Q 2900 3119 2900 3481 
Q 2900 3844 2670 4047 
Q 2441 4250 2034 4250 
Q 1625 4250 1398 4047 
Q 1172 3844 1172 3481 
z
" transform="scale(0.015625)"/>
       </defs>
       <use xlink:href="#DejaVuSans-37"/>
       <use xlink:href="#DejaVuSans-20" transform="translate(61.078125 0)"/>
       <use xlink:href="#DejaVuSans-1b" transform="translate(144.875 0)"/>
      </g>
     </g>
    </g>
    <g id="xtick_4">
     <g id="line2d_4">
      <g>
       <use xlink:href="#m41a0984935" x="247.762459" y="177.96535" style="stroke: #000000; stroke-width: 0.8"/>
      </g>
     </g>
     <g id="text_4">
      <!-- captured_decode -->
      <g transform="translate(165.369191 235.535317) rotate(-30) scale(0.1 -0.1)">
       <use xlink:href="#DejaVuSans-46"/>
       <use xlink:href="#DejaVuSans-44" transform="translate(54.984375 0)"/>
       <use xlink:href="#DejaVuSans-53" transform="translate(116.265625 0)"/>
       <use xlink:href="#DejaVuSans-57" transform="translate(179.75 0)"/>
       <use xlink:href="#DejaVuSans-58" transform="translate(218.953125 0)"/>
       <use xlink:href="#DejaVuSans-55" transform="translate(282.328125 0)"/>
       <use xlink:href="#DejaVuSans-48" transform="translate(321.234375 0)"/>
       <use xlink:href="#DejaVuSans-47" transform="translate(382.765625 0)"/>
       <use xlink:href="#DejaVuSans-42" transform="translate(446.25 0)"/>
       <use xlink:href="#DejaVuSans-47" transform="translate(496.25 0)"/>
       <use xlink:href="#DejaVuSans-48" transform="translate(559.734375 0)"/>
       <use xlink:href="#DejaVuSans-46" transform="translate(621.265625 0)"/>
       <use xlink:href="#DejaVuSans-52" transform="translate(676.25 0)"/>
       <use xlink:href="#DejaVuSans-47" transform="translate(737.4375 0)"/>
       <use xlink:href="#DejaVuSans-48" transform="translate(800.921875 0)"/>
      </g>
      <!-- T=16 -->
      <g transform="translate(222.494082 216.412907) rotate(-30) scale(0.1 -0.1)">
       <defs>
        <path id="DejaVuSans-14" d="M 794 531 
L 1825 531 
L 1825 4091 
L 703 3866 
L 703 4441 
L 1819 4666 
L 2450 4666 
L 2450 531 
L 3481 531 
L 3481 0 
L 794 0 
L 794 531 
z
" transform="scale(0.015625)"/>
        <path id="DejaVuSans-19" d="M 2113 2584 
Q 1688 2584 1439 2293 
Q 1191 2003 1191 1497 
Q 1191 994 1439 701 
Q 1688 409 2113 409 
Q 2538 409 2786 701 
Q 3034 994 3034 1497 
Q 3034 2003 2786 2293 
Q 2538 2584 2113 2584 
z
M 3366 4563 
L 3366 3988 
Q 3128 4100 2886 4159 
Q 2644 4219 2406 4219 
Q 1781 4219 1451 3797 
Q 1122 3375 1075 2522 
Q 1259 2794 1537 2939 
Q 1816 3084 2150 3084 
Q 2853 3084 3261 2657 
Q 3669 2231 3669 1497 
Q 3669 778 3244 343 
Q 2819 -91 2113 -91 
Q 1303 -91 875 529 
Q 447 1150 447 2328 
Q 447 3434 972 4092 
Q 1497 4750 2381 4750 
Q 2619 4750 2861 4703 
Q 3103 4656 3366 4563 
z
" transform="scale(0.015625)"/>
       </defs>
       <use xlink:href="#DejaVuSans-37"/>
       <use xlink:href="#DejaVuSans-20" transform="translate(61.078125 0)"/>
       <use xlink:href="#DejaVuSans-14" transform="translate(144.875 0)"/>
       <use xlink:href="#DejaVuSans-19" transform="translate(208.5 0)"/>
      </g>
     </g>
    </g>
    <g id="xtick_5">
     <g id="line2d_5">
      <g>
       <use xlink:href="#m41a0984935" x="295.828869" y="177.96535" style="stroke: #000000; stroke-width: 0.8"/>
      </g>
     </g>
     <g id="text_5">
      <!-- captured_mixed -->
      <g transform="translate(218.622281 232.540786) rotate(-30) scale(0.1 -0.1)">
       <defs>
        <path id="DejaVuSans-50" d="M 3328 2828 
Q 3544 3216 3844 3400 
Q 4144 3584 4550 3584 
Q 5097 3584 5394 3201 
Q 5691 2819 5691 2113 
L 5691 0 
L 5113 0 
L 5113 2094 
Q 5113 2597 4934 2840 
Q 4756 3084 4391 3084 
Q 3944 3084 3684 2787 
Q 3425 2491 3425 1978 
L 3425 0 
L 2847 0 
L 2847 2094 
Q 2847 2600 2669 2842 
Q 2491 3084 2119 3084 
Q 1678 3084 1418 2786 
Q 1159 2488 1159 1978 
L 1159 0 
L 581 0 
L 581 3500 
L 1159 3500 
L 1159 2956 
Q 1356 3278 1631 3431 
Q 1906 3584 2284 3584 
Q 2666 3584 2933 3390 
Q 3200 3197 3328 2828 
z
" transform="scale(0.015625)"/>
        <path id="DejaVuSans-4c" d="M 603 3500 
L 1178 3500 
L 1178 0 
L 603 0 
L 603 3500 
z
M 603 4863 
L 1178 4863 
L 1178 4134 
L 603 4134 
L 603 4863 
z
" transform="scale(0.015625)"/>
        <path id="DejaVuSans-5b" d="M 3513 3500 
L 2247 1797 
L 3578 0 
L 2900 0 
L 1881 1375 
L 863 0 
L 184 0 
L 1544 1831 
L 300 3500 
L 978 3500 
L 1906 2253 
L 2834 3500 
L 3513 3500 
z
" transform="scale(0.015625)"/>
       </defs>
       <use xlink:href="#DejaVuSans-46"/>
       <use xlink:href="#DejaVuSans-44" transform="translate(54.984375 0)"/>
       <use xlink:href="#DejaVuSans-53" transform="translate(116.265625 0)"/>
       <use xlink:href="#DejaVuSans-57" transform="translate(179.75 0)"/>
       <use xlink:href="#DejaVuSans-58" transform="translate(218.953125 0)"/>
       <use xlink:href="#DejaVuSans-55" transform="translate(282.328125 0)"/>
       <use xlink:href="#DejaVuSans-48" transform="translate(321.234375 0)"/>
       <use xlink:href="#DejaVuSans-47" transform="translate(382.765625 0)"/>
       <use xlink:href="#DejaVuSans-42" transform="translate(446.25 0)"/>
       <use xlink:href="#DejaVuSans-50" transform="translate(496.25 0)"/>
       <use xlink:href="#DejaVuSans-4c" transform="translate(593.65625 0)"/>
       <use xlink:href="#DejaVuSans-5b" transform="translate(621.4375 0)"/>
       <use xlink:href="#DejaVuSans-48" transform="translate(677.546875 0)"/>
       <use xlink:href="#DejaVuSans-47" transform="translate(739.078125 0)"/>
      </g>
      <!-- T=64 -->
      <g transform="translate(270.560493 216.412907) rotate(-30) scale(0.1 -0.1)">
       <use xlink:href="#DejaVuSans-37"/>
       <use xlink:href="#DejaVuSans-20" transform="translate(61.078125 0)"/>
       <use xlink:href="#DejaVuSans-19" transform="translate(144.875 0)"/>
       <use xlink:href="#DejaVuSans-17" transform="translate(208.5 0)"/>
      </g>
     </g>
    </g>
    <g id="xtick_6">
     <g id="line2d_6">
      <g>
       <use xlink:href="#m41a0984935" x="343.89528" y="177.96535" style="stroke: #000000; stroke-width: 0.8"/>
      </g>
     </g>
     <g id="text_6">
      <!-- captured_mixed -->
      <g transform="translate(266.688692 232.540786) rotate(-30) scale(0.1 -0.1)">
       <use xlink:href="#DejaVuSans-46"/>
       <use xlink:href="#DejaVuSans-44" transform="translate(54.984375 0)"/>
       <use xlink:href="#DejaVuSans-53" transform="translate(116.265625 0)"/>
       <use xlink:href="#DejaVuSans-57" transform="translate(179.75 0)"/>
       <use xlink:href="#DejaVuSans-58" transform="translate(218.953125 0)"/>
       <use xlink:href="#DejaVuSans-55" transform="translate(282.328125 0)"/>
       <use xlink:href="#DejaVuSans-48" transform="translate(321.234375 0)"/>
       <use xlink:href="#DejaVuSans-47" transform="translate(382.765625 0)"/>
       <use xlink:href="#DejaVuSans-42" transform="translate(446.25 0)"/>
       <use xlink:href="#DejaVuSans-50" transform="translate(496.25 0)"/>
       <use xlink:href="#DejaVuSans-4c" transform="translate(593.65625 0)"/>
       <use xlink:href="#DejaVuSans-5b" transform="translate(621.4375 0)"/>
       <use xlink:href="#DejaVuSans-48" transform="translate(677.546875 0)"/>
       <use xlink:href="#DejaVuSans-47" transform="translate(739.078125 0)"/>
      </g>
      <!-- T=96 -->
      <g transform="translate(318.626903 216.412907) rotate(-30) scale(0.1 -0.1)">
       <defs>
        <path id="DejaVuSans-1c" d="M 703 97 
L 703 672 
Q 941 559 1184 500 
Q 1428 441 1663 441 
Q 2288 441 2617 861 
Q 2947 1281 2994 2138 
Q 2813 1869 2534 1725 
Q 2256 1581 1919 1581 
Q 1219 1581 811 2004 
Q 403 2428 403 3163 
Q 403 3881 828 4315 
Q 1253 4750 1959 4750 
Q 2769 4750 3195 4129 
Q 3622 3509 3622 2328 
Q 3622 1225 3098 567 
Q 2575 -91 1691 -91 
Q 1453 -91 1209 -44 
Q 966 3 703 97 
z
M 1959 2075 
Q 2384 2075 2632 2365 
Q 2881 2656 2881 3163 
Q 2881 3666 2632 3958 
Q 2384 4250 1959 4250 
Q 1534 4250 1286 3958 
Q 1038 3666 1038 3163 
Q 1038 2656 1286 2365 
Q 1534 2075 1959 2075 
z
" transform="scale(0.015625)"/>
       </defs>
       <use xlink:href="#DejaVuSans-37"/>
       <use xlink:href="#DejaVuSans-20" transform="translate(61.078125 0)"/>
       <use xlink:href="#DejaVuSans-1c" transform="translate(144.875 0)"/>
       <use xlink:href="#DejaVuSans-19" transform="translate(208.5 0)"/>
      </g>
     </g>
    </g>
    <g id="xtick_7">
     <g id="line2d_7">
      <g>
       <use xlink:href="#m41a0984935" x="391.96169" y="177.96535" style="stroke: #000000; stroke-width: 0.8"/>
      </g>
     </g>
     <g id="text_7">
      <!-- captured_mixed -->
      <g transform="translate(314.755102 232.540786) rotate(-30) scale(0.1 -0.1)">
       <use xlink:href="#DejaVuSans-46"/>
       <use xlink:href="#DejaVuSans-44" transform="translate(54.984375 0)"/>
       <use xlink:href="#DejaVuSans-53" transform="translate(116.265625 0)"/>
       <use xlink:href="#DejaVuSans-57" transform="translate(179.75 0)"/>
       <use xlink:href="#DejaVuSans-58" transform="translate(218.953125 0)"/>
       <use xlink:href="#DejaVuSans-55" transform="translate(282.328125 0)"/>
       <use xlink:href="#DejaVuSans-48" transform="translate(321.234375 0)"/>
       <use xlink:href="#DejaVuSans-47" transform="translate(382.765625 0)"/>
       <use xlink:href="#DejaVuSans-42" transform="translate(446.25 0)"/>
       <use xlink:href="#DejaVuSans-50" transform="translate(496.25 0)"/>
       <use xlink:href="#DejaVuSans-4c" transform="translate(593.65625 0)"/>
       <use xlink:href="#DejaVuSans-5b" transform="translate(621.4375 0)"/>
       <use xlink:href="#DejaVuSans-48" transform="translate(677.546875 0)"/>
       <use xlink:href="#DejaVuSans-47" transform="translate(739.078125 0)"/>
      </g>
      <!-- T=128 -->
      <g transform="translate(361.183227 219.594157) rotate(-30) scale(0.1 -0.1)">
       <use xlink:href="#DejaVuSans-37"/>
       <use xlink:href="#DejaVuSans-20" transform="translate(61.078125 0)"/>
       <use xlink:href="#DejaVuSans-14" transform="translate(144.875 0)"/>
       <use xlink:href="#DejaVuSans-15" transform="translate(208.5 0)"/>
       <use xlink:href="#DejaVuSans-1b" transform="translate(272.125 0)"/>
      </g>
     </g>
    </g>
    <g id="xtick_8">
     <g id="line2d_8">
      <g>
       <use xlink:href="#m41a0984935" x="440.028101" y="177.96535" style="stroke: #000000; stroke-width: 0.8"/>
      </g>
     </g>
     <g id="text_8">
      <!-- constructed_offline_rebatch -->
      <g transform="translate(312.133317 261.805629) rotate(-30) scale(0.1 -0.1)">
       <defs>
        <path id="DejaVuSans-51" d="M 3513 2113 
L 3513 0 
L 2938 0 
L 2938 2094 
Q 2938 2591 2744 2837 
Q 2550 3084 2163 3084 
Q 1697 3084 1428 2787 
Q 1159 2491 1159 1978 
L 1159 0 
L 581 0 
L 581 3500 
L 1159 3500 
L 1159 2956 
Q 1366 3272 1645 3428 
Q 1925 3584 2291 3584 
Q 2894 3584 3203 3211 
Q 3513 2838 3513 2113 
z
" transform="scale(0.015625)"/>
        <path id="DejaVuSans-56" d="M 2834 3397 
L 2834 2853 
Q 2591 2978 2328 3040 
Q 2066 3103 1784 3103 
Q 1356 3103 1142 2972 
Q 928 2841 928 2578 
Q 928 2378 1081 2264 
Q 1234 2150 1697 2047 
L 1894 2003 
Q 2506 1872 2764 1633 
Q 3022 1394 3022 966 
Q 3022 478 2636 193 
Q 2250 -91 1575 -91 
Q 1294 -91 989 -36 
Q 684 19 347 128 
L 347 722 
Q 666 556 975 473 
Q 1284 391 1588 391 
Q 1994 391 2212 530 
Q 2431 669 2431 922 
Q 2431 1156 2273 1281 
Q 2116 1406 1581 1522 
L 1381 1569 
Q 847 1681 609 1914 
Q 372 2147 372 2553 
Q 372 3047 722 3315 
Q 1072 3584 1716 3584 
Q 2034 3584 2315 3537 
Q 2597 3491 2834 3397 
z
" transform="scale(0.015625)"/>
        <path id="DejaVuSans-13b2" d="M 2375 4863 
L 2375 4384 
L 1825 4384 
Q 1516 4384 1394 4259 
Q 1275 4134 1275 3809 
L 1275 3500 
L 2853 3500 
L 2853 3744 
Q 2853 4328 3125 4595 
Q 3397 4863 3988 4863 
L 5588 4863 
L 5588 0 
L 5009 0 
L 5009 4384 
L 3981 4384 
Q 3672 4384 3551 4259 
Q 3431 4134 3431 3809 
L 3431 3500 
L 4378 3500 
L 4378 3053 
L 3431 3053 
L 3431 0 
L 2853 0 
L 2853 3053 
L 1275 3053 
L 1275 0 
L 697 0 
L 697 3053 
L 147 3053 
L 147 3500 
L 697 3500 
L 697 3744 
Q 697 4328 969 4595 
Q 1241 4863 1831 4863 
L 2375 4863 
z
" transform="scale(0.015625)"/>
        <path id="DejaVuSans-45" d="M 3116 1747 
Q 3116 2381 2855 2742 
Q 2594 3103 2138 3103 
Q 1681 3103 1420 2742 
Q 1159 2381 1159 1747 
Q 1159 1113 1420 752 
Q 1681 391 2138 391 
Q 2594 391 2855 752 
Q 3116 1113 3116 1747 
z
M 1159 2969 
Q 1341 3281 1617 3432 
Q 1894 3584 2278 3584 
Q 2916 3584 3314 3078 
Q 3713 2572 3713 1747 
Q 3713 922 3314 415 
Q 2916 -91 2278 -91 
Q 1894 -91 1617 61 
Q 1341 213 1159 525 
L 1159 0 
L 581 0 
L 581 4863 
L 1159 4863 
L 1159 2969 
z
" transform="scale(0.015625)"/>
        <path id="DejaVuSans-4b" d="M 3513 2113 
L 3513 0 
L 2938 0 
L 2938 2094 
Q 2938 2591 2744 2837 
Q 2550 3084 2163 3084 
Q 1697 3084 1428 2787 
Q 1159 2491 1159 1978 
L 1159 0 
L 581 0 
L 581 4863 
L 1159 4863 
L 1159 2956 
Q 1366 3272 1645 3428 
Q 1925 3584 2291 3584 
Q 2894 3584 3203 3211 
Q 3513 2838 3513 2113 
z
" transform="scale(0.015625)"/>
       </defs>
       <use xlink:href="#DejaVuSans-46"/>
       <use xlink:href="#DejaVuSans-52" transform="translate(54.984375 0)"/>
       <use xlink:href="#DejaVuSans-51" transform="translate(116.171875 0)"/>
       <use xlink:href="#DejaVuSans-56" transform="translate(179.546875 0)"/>
       <use xlink:href="#DejaVuSans-57" transform="translate(231.640625 0)"/>
       <use xlink:href="#DejaVuSans-55" transform="translate(270.84375 0)"/>
       <use xlink:href="#DejaVuSans-58" transform="translate(311.953125 0)"/>
       <use xlink:href="#DejaVuSans-46" transform="translate(375.328125 0)"/>
       <use xlink:href="#DejaVuSans-57" transform="translate(430.3125 0)"/>
       <use xlink:href="#DejaVuSans-48" transform="translate(469.515625 0)"/>
       <use xlink:href="#DejaVuSans-47" transform="translate(531.046875 0)"/>
       <use xlink:href="#DejaVuSans-42" transform="translate(594.53125 0)"/>
       <use xlink:href="#DejaVuSans-52" transform="translate(644.53125 0)"/>
       <use xlink:href="#DejaVuSans-13b2" transform="translate(705.71875 0)"/>
       <use xlink:href="#DejaVuSans-4c" transform="translate(802.40625 0)"/>
       <use xlink:href="#DejaVuSans-51" transform="translate(830.1875 0)"/>
       <use xlink:href="#DejaVuSans-48" transform="translate(893.5625 0)"/>
       <use xlink:href="#DejaVuSans-42" transform="translate(955.09375 0)"/>
       <use xlink:href="#DejaVuSans-55" transform="translate(1005.09375 0)"/>
       <use xlink:href="#DejaVuSans-48" transform="translate(1044 0)"/>
       <use xlink:href="#DejaVuSans-45" transform="translate(1105.53125 0)"/>
       <use xlink:href="#DejaVuSans-44" transform="translate(1169.015625 0)"/>
       <use xlink:href="#DejaVuSans-57" transform="translate(1230.296875 0)"/>
       <use xlink:href="#DejaVuSans-46" transform="translate(1269.5 0)"/>
       <use xlink:href="#DejaVuSans-4b" transform="translate(1324.484375 0)"/>
      </g>
      <!-- T=32 -->
      <g transform="translate(414.759725 216.412907) rotate(-30) scale(0.1 -0.1)">
       <defs>
        <path id="DejaVuSans-16" d="M 2597 2516 
Q 3050 2419 3304 2112 
Q 3559 1806 3559 1356 
Q 3559 666 3084 287 
Q 2609 -91 1734 -91 
Q 1441 -91 1130 -33 
Q 819 25 488 141 
L 488 750 
Q 750 597 1062 519 
Q 1375 441 1716 441 
Q 2309 441 2620 675 
Q 2931 909 2931 1356 
Q 2931 1769 2642 2001 
Q 2353 2234 1838 2234 
L 1294 2234 
L 1294 2753 
L 1863 2753 
Q 2328 2753 2575 2939 
Q 2822 3125 2822 3475 
Q 2822 3834 2567 4026 
Q 2313 4219 1838 4219 
Q 1578 4219 1281 4162 
Q 984 4106 628 3988 
L 628 4550 
Q 988 4650 1302 4700 
Q 1616 4750 1894 4750 
Q 2613 4750 3031 4423 
Q 3450 4097 3450 3541 
Q 3450 3153 3228 2886 
Q 3006 2619 2597 2516 
z
" transform="scale(0.015625)"/>
       </defs>
       <use xlink:href="#DejaVuSans-37"/>
       <use xlink:href="#DejaVuSans-20" transform="translate(61.078125 0)"/>
       <use xlink:href="#DejaVuSans-16" transform="translate(144.875 0)"/>
       <use xlink:href="#DejaVuSans-15" transform="translate(208.5 0)"/>
      </g>
     </g>
    </g>
    <g id="xtick_9">
     <g id="line2d_9">
      <g>
       <use xlink:href="#m41a0984935" x="488.094512" y="177.96535" style="stroke: #000000; stroke-width: 0.8"/>
      </g>
     </g>
     <g id="text_9">
      <!-- constructed_offline_rebatch -->
      <g transform="translate(360.199727 261.805629) rotate(-30) scale(0.1 -0.1)">
       <use xlink:href="#DejaVuSans-46"/>
       <use xlink:href="#DejaVuSans-52" transform="translate(54.984375 0)"/>
       <use xlink:href="#DejaVuSans-51" transform="translate(116.171875 0)"/>
       <use xlink:href="#DejaVuSans-56" transform="translate(179.546875 0)"/>
       <use xlink:href="#DejaVuSans-57" transform="translate(231.640625 0)"/>
       <use xlink:href="#DejaVuSans-55" transform="translate(270.84375 0)"/>
       <use xlink:href="#DejaVuSans-58" transform="translate(311.953125 0)"/>
       <use xlink:href="#DejaVuSans-46" transform="translate(375.328125 0)"/>
       <use xlink:href="#DejaVuSans-57" transform="translate(430.3125 0)"/>
       <use xlink:href="#DejaVuSans-48" transform="translate(469.515625 0)"/>
       <use xlink:href="#DejaVuSans-47" transform="translate(531.046875 0)"/>
       <use xlink:href="#DejaVuSans-42" transform="translate(594.53125 0)"/>
       <use xlink:href="#DejaVuSans-52" transform="translate(644.53125 0)"/>
       <use xlink:href="#DejaVuSans-13b2" transform="translate(705.71875 0)"/>
       <use xlink:href="#DejaVuSans-4c" transform="translate(802.40625 0)"/>
       <use xlink:href="#DejaVuSans-51" transform="translate(830.1875 0)"/>
       <use xlink:href="#DejaVuSans-48" transform="translate(893.5625 0)"/>
       <use xlink:href="#DejaVuSans-42" transform="translate(955.09375 0)"/>
       <use xlink:href="#DejaVuSans-55" transform="translate(1005.09375 0)"/>
       <use xlink:href="#DejaVuSans-48" transform="translate(1044 0)"/>
       <use xlink:href="#DejaVuSans-45" transform="translate(1105.53125 0)"/>
       <use xlink:href="#DejaVuSans-44" transform="translate(1169.015625 0)"/>
       <use xlink:href="#DejaVuSans-57" transform="translate(1230.296875 0)"/>
       <use xlink:href="#DejaVuSans-46" transform="translate(1269.5 0)"/>
       <use xlink:href="#DejaVuSans-4b" transform="translate(1324.484375 0)"/>
      </g>
      <!-- T=64 -->
      <g transform="translate(462.826135 216.412907) rotate(-30) scale(0.1 -0.1)">
       <use xlink:href="#DejaVuSans-37"/>
       <use xlink:href="#DejaVuSans-20" transform="translate(61.078125 0)"/>
       <use xlink:href="#DejaVuSans-19" transform="translate(144.875 0)"/>
       <use xlink:href="#DejaVuSans-17" transform="translate(208.5 0)"/>
      </g>
     </g>
    </g>
    <g id="xtick_10">
     <g id="line2d_10">
      <g>
       <use xlink:href="#m41a0984935" x="536.160922" y="177.96535" style="stroke: #000000; stroke-width: 0.8"/>
      </g>
     </g>
     <g id="text_10">
      <!-- constructed_zipf -->
      <g transform="translate(457.142447 233.586879) rotate(-30) scale(0.1 -0.1)">
       <defs>
        <path id="DejaVuSans-5d" d="M 353 3500 
L 3084 3500 
L 3084 2975 
L 922 459 
L 3084 459 
L 3084 0 
L 275 0 
L 275 525 
L 2438 3041 
L 353 3041 
L 353 3500 
z
" transform="scale(0.015625)"/>
        <path id="DejaVuSans-49" d="M 2375 4863 
L 2375 4384 
L 1825 4384 
Q 1516 4384 1395 4259 
Q 1275 4134 1275 3809 
L 1275 3500 
L 2222 3500 
L 2222 3053 
L 1275 3053 
L 1275 0 
L 697 0 
L 697 3053 
L 147 3053 
L 147 3500 
L 697 3500 
L 697 3744 
Q 697 4328 969 4595 
Q 1241 4863 1831 4863 
L 2375 4863 
z
" transform="scale(0.015625)"/>
       </defs>
       <use xlink:href="#DejaVuSans-46"/>
       <use xlink:href="#DejaVuSans-52" transform="translate(54.984375 0)"/>
       <use xlink:href="#DejaVuSans-51" transform="translate(116.171875 0)"/>
       <use xlink:href="#DejaVuSans-56" transform="translate(179.546875 0)"/>
       <use xlink:href="#DejaVuSans-57" transform="translate(231.640625 0)"/>
       <use xlink:href="#DejaVuSans-55" transform="translate(270.84375 0)"/>
       <use xlink:href="#DejaVuSans-58" transform="translate(311.953125 0)"/>
       <use xlink:href="#DejaVuSans-46" transform="translate(375.328125 0)"/>
       <use xlink:href="#DejaVuSans-57" transform="translate(430.3125 0)"/>
       <use xlink:href="#DejaVuSans-48" transform="translate(469.515625 0)"/>
       <use xlink:href="#DejaVuSans-47" transform="translate(531.046875 0)"/>
       <use xlink:href="#DejaVuSans-42" transform="translate(594.53125 0)"/>
       <use xlink:href="#DejaVuSans-5d" transform="translate(644.53125 0)"/>
       <use xlink:href="#DejaVuSans-4c" transform="translate(697.015625 0)"/>
       <use xlink:href="#DejaVuSans-53" transform="translate(724.796875 0)"/>
       <use xlink:href="#DejaVuSans-49" transform="translate(788.28125 0)"/>
      </g>
      <!-- T=32 -->
      <g transform="translate(510.892546 216.412907) rotate(-30) scale(0.1 -0.1)">
       <use xlink:href="#DejaVuSans-37"/>
       <use xlink:href="#DejaVuSans-20" transform="translate(61.078125 0)"/>
       <use xlink:href="#DejaVuSans-16" transform="translate(144.875 0)"/>
       <use xlink:href="#DejaVuSans-15" transform="translate(208.5 0)"/>
      </g>
     </g>
    </g>
    <g id="xtick_11">
     <g id="line2d_11">
      <g>
       <use xlink:href="#m41a0984935" x="584.227333" y="177.96535" style="stroke: #000000; stroke-width: 0.8"/>
      </g>
     </g>
     <g id="text_11">
      <!-- constructed_zipf -->
      <g transform="translate(505.208857 233.586879) rotate(-30) scale(0.1 -0.1)">
       <use xlink:href="#DejaVuSans-46"/>
       <use xlink:href="#DejaVuSans-52" transform="translate(54.984375 0)"/>
       <use xlink:href="#DejaVuSans-51" transform="translate(116.171875 0)"/>
       <use xlink:href="#DejaVuSans-56" transform="translate(179.546875 0)"/>
       <use xlink:href="#DejaVuSans-57" transform="translate(231.640625 0)"/>
       <use xlink:href="#DejaVuSans-55" transform="translate(270.84375 0)"/>
       <use xlink:href="#DejaVuSans-58" transform="translate(311.953125 0)"/>
       <use xlink:href="#DejaVuSans-46" transform="translate(375.328125 0)"/>
       <use xlink:href="#DejaVuSans-57" transform="translate(430.3125 0)"/>
       <use xlink:href="#DejaVuSans-48" transform="translate(469.515625 0)"/>
       <use xlink:href="#DejaVuSans-47" transform="translate(531.046875 0)"/>
       <use xlink:href="#DejaVuSans-42" transform="translate(594.53125 0)"/>
       <use xlink:href="#DejaVuSans-5d" transform="translate(644.53125 0)"/>
       <use xlink:href="#DejaVuSans-4c" transform="translate(697.015625 0)"/>
       <use xlink:href="#DejaVuSans-53" transform="translate(724.796875 0)"/>
       <use xlink:href="#DejaVuSans-49" transform="translate(788.28125 0)"/>
      </g>
      <!-- T=64 -->
      <g transform="translate(558.958956 216.412907) rotate(-30) scale(0.1 -0.1)">
       <use xlink:href="#DejaVuSans-37"/>
       <use xlink:href="#DejaVuSans-20" transform="translate(61.078125 0)"/>
       <use xlink:href="#DejaVuSans-19" transform="translate(144.875 0)"/>
       <use xlink:href="#DejaVuSans-17" transform="translate(208.5 0)"/>
      </g>
     </g>
    </g>
    <g id="xtick_12">
     <g id="line2d_12">
      <g>
       <use xlink:href="#m41a0984935" x="632.293743" y="177.96535" style="stroke: #000000; stroke-width: 0.8"/>
      </g>
     </g>
     <g id="text_12">
      <!-- constructed_zipf -->
      <g transform="translate(553.275268 233.586879) rotate(-30) scale(0.1 -0.1)">
       <use xlink:href="#DejaVuSans-46"/>
       <use xlink:href="#DejaVuSans-52" transform="translate(54.984375 0)"/>
       <use xlink:href="#DejaVuSans-51" transform="translate(116.171875 0)"/>
       <use xlink:href="#DejaVuSans-56" transform="translate(179.546875 0)"/>
       <use xlink:href="#DejaVuSans-57" transform="translate(231.640625 0)"/>
       <use xlink:href="#DejaVuSans-55" transform="translate(270.84375 0)"/>
       <use xlink:href="#DejaVuSans-58" transform="translate(311.953125 0)"/>
       <use xlink:href="#DejaVuSans-46" transform="translate(375.328125 0)"/>
       <use xlink:href="#DejaVuSans-57" transform="translate(430.3125 0)"/>
       <use xlink:href="#DejaVuSans-48" transform="translate(469.515625 0)"/>
       <use xlink:href="#DejaVuSans-47" transform="translate(531.046875 0)"/>
       <use xlink:href="#DejaVuSans-42" transform="translate(594.53125 0)"/>
       <use xlink:href="#DejaVuSans-5d" transform="translate(644.53125 0)"/>
       <use xlink:href="#DejaVuSans-4c" transform="translate(697.015625 0)"/>
       <use xlink:href="#DejaVuSans-53" transform="translate(724.796875 0)"/>
       <use xlink:href="#DejaVuSans-49" transform="translate(788.28125 0)"/>
      </g>
      <!-- T=96 -->
      <g transform="translate(607.025367 216.412907) rotate(-30) scale(0.1 -0.1)">
       <use xlink:href="#DejaVuSans-37"/>
       <use xlink:href="#DejaVuSans-20" transform="translate(61.078125 0)"/>
       <use xlink:href="#DejaVuSans-1c" transform="translate(144.875 0)"/>
       <use xlink:href="#DejaVuSans-19" transform="translate(208.5 0)"/>
      </g>
     </g>
    </g>
    <g id="xtick_13">
     <g id="line2d_13">
      <g>
       <use xlink:href="#m41a0984935" x="680.360154" y="177.96535" style="stroke: #000000; stroke-width: 0.8"/>
      </g>
     </g>
     <g id="text_13">
      <!-- constructed_zipf -->
      <g transform="translate(601.341678 233.586879) rotate(-30) scale(0.1 -0.1)">
       <use xlink:href="#DejaVuSans-46"/>
       <use xlink:href="#DejaVuSans-52" transform="translate(54.984375 0)"/>
       <use xlink:href="#DejaVuSans-51" transform="translate(116.171875 0)"/>
       <use xlink:href="#DejaVuSans-56" transform="translate(179.546875 0)"/>
       <use xlink:href="#DejaVuSans-57" transform="translate(231.640625 0)"/>
       <use xlink:href="#DejaVuSans-55" transform="translate(270.84375 0)"/>
       <use xlink:href="#DejaVuSans-58" transform="translate(311.953125 0)"/>
       <use xlink:href="#DejaVuSans-46" transform="translate(375.328125 0)"/>
       <use xlink:href="#DejaVuSans-57" transform="translate(430.3125 0)"/>
       <use xlink:href="#DejaVuSans-48" transform="translate(469.515625 0)"/>
       <use xlink:href="#DejaVuSans-47" transform="translate(531.046875 0)"/>
       <use xlink:href="#DejaVuSans-42" transform="translate(594.53125 0)"/>
       <use xlink:href="#DejaVuSans-5d" transform="translate(644.53125 0)"/>
       <use xlink:href="#DejaVuSans-4c" transform="translate(697.015625 0)"/>
       <use xlink:href="#DejaVuSans-53" transform="translate(724.796875 0)"/>
       <use xlink:href="#DejaVuSans-49" transform="translate(788.28125 0)"/>
      </g>
      <!-- T=128 -->
      <g transform="translate(649.581691 219.594157) rotate(-30) scale(0.1 -0.1)">
       <use xlink:href="#DejaVuSans-37"/>
       <use xlink:href="#DejaVuSans-20" transform="translate(61.078125 0)"/>
       <use xlink:href="#DejaVuSans-14" transform="translate(144.875 0)"/>
       <use xlink:href="#DejaVuSans-15" transform="translate(208.5 0)"/>
       <use xlink:href="#DejaVuSans-1b" transform="translate(272.125 0)"/>
      </g>
     </g>
    </g>
   </g>
   <g id="matplotlib.axis_2">
    <g id="ytick_1">
     <g id="line2d_14">
      <defs>
       <path id="md70a1379bf" d="M 0 0 
L -3.5 0 
" style="stroke: #000000; stroke-width: 0.8"/>
      </defs>
      <g>
       <use xlink:href="#md70a1379bf" x="74.723381" y="141.367597" style="stroke: #000000; stroke-width: 0.8"/>
      </g>
     </g>
     <g id="text_14">
      <!-- 1000 -->
      <g transform="translate(42.273381 145.166425) scale(0.1 -0.1)">
       <defs>
        <path id="DejaVuSans-13" d="M 2034 4250 
Q 1547 4250 1301 3770 
Q 1056 3291 1056 2328 
Q 1056 1369 1301 889 
Q 1547 409 2034 409 
Q 2525 409 2770 889 
Q 3016 1369 3016 2328 
Q 3016 3291 2770 3770 
Q 2525 4250 2034 4250 
z
M 2034 4750 
Q 2819 4750 3233 4129 
Q 3647 3509 3647 2328 
Q 3647 1150 3233 529 
Q 2819 -91 2034 -91 
Q 1250 -91 836 529 
Q 422 1150 422 2328 
Q 422 3509 836 4129 
Q 1250 4750 2034 4750 
z
" transform="scale(0.015625)"/>
       </defs>
       <use xlink:href="#DejaVuSans-14"/>
       <use xlink:href="#DejaVuSans-13" transform="translate(63.625 0)"/>
       <use xlink:href="#DejaVuSans-13" transform="translate(127.25 0)"/>
       <use xlink:href="#DejaVuSans-13" transform="translate(190.875 0)"/>
      </g>
     </g>
    </g>
    <g id="ytick_2">
     <g id="line2d_15">
      <g>
       <use xlink:href="#md70a1379bf" x="74.723381" y="102.869918" style="stroke: #000000; stroke-width: 0.8"/>
      </g>
     </g>
     <g id="text_15">
      <!-- 2000 -->
      <g transform="translate(42.273381 106.668747) scale(0.1 -0.1)">
       <use xlink:href="#DejaVuSans-15"/>
       <use xlink:href="#DejaVuSans-13" transform="translate(63.625 0)"/>
       <use xlink:href="#DejaVuSans-13" transform="translate(127.25 0)"/>
       <use xlink:href="#DejaVuSans-13" transform="translate(190.875 0)"/>
      </g>
     </g>
    </g>
    <g id="ytick_3">
     <g id="line2d_16">
      <g>
       <use xlink:href="#md70a1379bf" x="74.723381" y="64.37224" style="stroke: #000000; stroke-width: 0.8"/>
      </g>
     </g>
     <g id="text_16">
      <!-- 3000 -->
      <g transform="translate(42.273381 68.171068) scale(0.1 -0.1)">
       <use xlink:href="#DejaVuSans-16"/>
       <use xlink:href="#DejaVuSans-13" transform="translate(63.625 0)"/>
       <use xlink:href="#DejaVuSans-13" transform="translate(127.25 0)"/>
       <use xlink:href="#DejaVuSans-13" transform="translate(190.875 0)"/>
      </g>
     </g>
    </g>
    <g id="ytick_4">
     <g id="line2d_17">
      <g>
       <use xlink:href="#md70a1379bf" x="74.723381" y="25.874561" style="stroke: #000000; stroke-width: 0.8"/>
      </g>
     </g>
     <g id="text_17">
      <!-- 4000 -->
      <g transform="translate(42.273381 29.673389) scale(0.1 -0.1)">
       <use xlink:href="#DejaVuSans-17"/>
       <use xlink:href="#DejaVuSans-13" transform="translate(63.625 0)"/>
       <use xlink:href="#DejaVuSans-13" transform="translate(127.25 0)"/>
       <use xlink:href="#DejaVuSans-13" transform="translate(190.875 0)"/>
      </g>
     </g>
    </g>
    <g id="text_18">
     <!-- Layer latency (µs at 1 GHz) -->
     <g transform="translate(35.871037 162.788144) rotate(-90) scale(0.1 -0.1)">
      <defs>
       <path id="DejaVuSans-2f" d="M 628 4666 
L 1259 4666 
L 1259 531 
L 3531 531 
L 3531 0 
L 628 0 
L 628 4666 
z
" transform="scale(0.015625)"/>
       <path id="DejaVuSans-5c" d="M 2059 -325 
Q 1816 -950 1584 -1140 
Q 1353 -1331 966 -1331 
L 506 -1331 
L 506 -850 
L 844 -850 
Q 1081 -850 1212 -737 
Q 1344 -625 1503 -206 
L 1606 56 
L 191 3500 
L 800 3500 
L 1894 763 
L 2988 3500 
L 3597 3500 
L 2059 -325 
z
" transform="scale(0.015625)"/>
       <path id="DejaVuSans-3" transform="scale(0.015625)"/>
       <path id="DejaVuSans-4f" d="M 603 4863 
L 1178 4863 
L 1178 0 
L 603 0 
L 603 4863 
z
" transform="scale(0.015625)"/>
       <path id="DejaVuSans-b" d="M 1984 4856 
Q 1566 4138 1362 3434 
Q 1159 2731 1159 2009 
Q 1159 1288 1364 580 
Q 1569 -128 1984 -844 
L 1484 -844 
Q 1016 -109 783 600 
Q 550 1309 550 2009 
Q 550 2706 781 3412 
Q 1013 4119 1484 4856 
L 1984 4856 
z
" transform="scale(0.015625)"/>
       <path id="DejaVuSans-77" d="M 544 -1331 
L 544 3500 
L 1119 3500 
L 1119 1325 
Q 1119 872 1334 640 
Q 1550 409 1972 409 
Q 2434 409 2667 671 
Q 2900 934 2900 1459 
L 2900 3500 
L 3475 3500 
L 3475 806 
Q 3475 619 3529 530 
Q 3584 441 3700 441 
Q 3728 441 3778 458 
Q 3828 475 3916 513 
L 3916 50 
Q 3788 -22 3673 -56 
Q 3559 -91 3450 -91 
Q 3234 -91 3106 31 
Q 2978 153 2931 403 
Q 2775 156 2548 32 
Q 2322 -91 2016 -91 
Q 1697 -91 1473 31 
Q 1250 153 1119 397 
L 1119 -1331 
L 544 -1331 
z
" transform="scale(0.015625)"/>
       <path id="DejaVuSans-2a" d="M 3809 666 
L 3809 1919 
L 2778 1919 
L 2778 2438 
L 4434 2438 
L 4434 434 
Q 4069 175 3628 42 
Q 3188 -91 2688 -91 
Q 1594 -91 976 548 
Q 359 1188 359 2328 
Q 359 3472 976 4111 
Q 1594 4750 2688 4750 
Q 3144 4750 3555 4637 
Q 3966 4525 4313 4306 
L 4313 3634 
Q 3963 3931 3569 4081 
Q 3175 4231 2741 4231 
Q 1884 4231 1454 3753 
Q 1025 3275 1025 2328 
Q 1025 1384 1454 906 
Q 1884 428 2741 428 
Q 3075 428 3337 486 
Q 3600 544 3809 666 
z
" transform="scale(0.015625)"/>
       <path id="DejaVuSans-2b" d="M 628 4666 
L 1259 4666 
L 1259 2753 
L 3553 2753 
L 3553 4666 
L 4184 4666 
L 4184 0 
L 3553 0 
L 3553 2222 
L 1259 2222 
L 1259 0 
L 628 0 
L 628 4666 
z
" transform="scale(0.015625)"/>
       <path id="DejaVuSans-c" d="M 513 4856 
L 1013 4856 
Q 1481 4119 1714 3412 
Q 1947 2706 1947 2009 
Q 1947 1309 1714 600 
Q 1481 -109 1013 -844 
L 513 -844 
Q 928 -128 1133 580 
Q 1338 1288 1338 2009 
Q 1338 2731 1133 3434 
Q 928 4138 513 4856 
z
" transform="scale(0.015625)"/>
      </defs>
      <use xlink:href="#DejaVuSans-2f"/>
      <use xlink:href="#DejaVuSans-44" transform="translate(55.71875 0)"/>
      <use xlink:href="#DejaVuSans-5c" transform="translate(117 0)"/>
      <use xlink:href="#DejaVuSans-48" transform="translate(176.1875 0)"/>
      <use xlink:href="#DejaVuSans-55" transform="translate(237.71875 0)"/>
      <use xlink:href="#DejaVuSans-3" transform="translate(278.828125 0)"/>
      <use xlink:href="#DejaVuSans-4f" transform="translate(310.609375 0)"/>
      <use xlink:href="#DejaVuSans-44" transform="translate(338.390625 0)"/>
      <use xlink:href="#DejaVuSans-57" transform="translate(399.671875 0)"/>
      <use xlink:href="#DejaVuSans-48" transform="translate(438.875 0)"/>
      <use xlink:href="#DejaVuSans-51" transform="translate(500.40625 0)"/>
      <use xlink:href="#DejaVuSans-46" transform="translate(563.78125 0)"/>
      <use xlink:href="#DejaVuSans-5c" transform="translate(618.765625 0)"/>
      <use xlink:href="#DejaVuSans-3" transform="translate(677.953125 0)"/>
      <use xlink:href="#DejaVuSans-b" transform="translate(709.734375 0)"/>
      <use xlink:href="#DejaVuSans-77" transform="translate(748.75 0)"/>
      <use xlink:href="#DejaVuSans-56" transform="translate(812.375 0)"/>
      <use xlink:href="#DejaVuSans-3" transform="translate(864.46875 0)"/>
      <use xlink:href="#DejaVuSans-44" transform="translate(896.25 0)"/>
      <use xlink:href="#DejaVuSans-57" transform="translate(957.53125 0)"/>
      <use xlink:href="#DejaVuSans-3" transform="translate(996.734375 0)"/>
      <use xlink:href="#DejaVuSans-14" transform="translate(1028.515625 0)"/>
      <use xlink:href="#DejaVuSans-3" transform="translate(1092.140625 0)"/>
      <use xlink:href="#DejaVuSans-2a" transform="translate(1123.921875 0)"/>
      <use xlink:href="#DejaVuSans-2b" transform="translate(1201.40625 0)"/>
      <use xlink:href="#DejaVuSans-5d" transform="translate(1276.609375 0)"/>
      <use xlink:href="#DejaVuSans-c" transform="translate(1329.09375 0)"/>
     </g>
    </g>
   </g>
   <g id="line2d_18">
    <path d="M 103.563227 170.154857 
L 151.629638 163.588917 
L 199.696048 159.193397 
L 247.762459 150.314068 
L 295.828869 111.27319 
L 343.89528 95.713646 
L 391.96169 79.838296 
L 440.028101 138.964141 
L 488.094512 115.885612 
L 536.160922 129.181013 
L 584.227333 110.250827 
L 632.293743 94.161607 
L 680.360154 77.486042 
" clip-path="url(#p12a098a20b)" style="fill: none; stroke: #1f77b4; stroke-width: 1.5; stroke-linecap: square"/>
    <defs>
     <path id="ma7c568cb9f" d="M 0 3 
C 0.795609 3 1.55874 2.683901 2.12132 2.12132 
C 2.683901 1.55874 3 0.795609 3 0 
C 3 -0.795609 2.683901 -1.55874 2.12132 -2.12132 
C 1.55874 -2.683901 0.795609 -3 0 -3 
C -0.795609 -3 -1.55874 -2.683901 -2.12132 -2.12132 
C -2.683901 -1.55874 -3 -0.795609 -3 0 
C -3 0.795609 -2.683901 1.55874 -2.12132 2.12132 
C -1.55874 2.683901 -0.795609 3 0 3 
z
" style="stroke: #1f77b4"/>
    </defs>
    <g clip-path="url(#p12a098a20b)">
     <use xlink:href="#ma7c568cb9f" x="103.563227" y="170.154857" style="fill: #1f77b4; stroke: #1f77b4"/>
     <use xlink:href="#ma7c568cb9f" x="151.629638" y="163.588917" style="fill: #1f77b4; stroke: #1f77b4"/>
     <use xlink:href="#ma7c568cb9f" x="199.696048" y="159.193397" style="fill: #1f77b4; stroke: #1f77b4"/>
     <use xlink:href="#ma7c568cb9f" x="247.762459" y="150.314068" style="fill: #1f77b4; stroke: #1f77b4"/>
     <use xlink:href="#ma7c568cb9f" x="295.828869" y="111.27319" style="fill: #1f77b4; stroke: #1f77b4"/>
     <use xlink:href="#ma7c568cb9f" x="343.89528" y="95.713646" style="fill: #1f77b4; stroke: #1f77b4"/>
     <use xlink:href="#ma7c568cb9f" x="391.96169" y="79.838296" style="fill: #1f77b4; stroke: #1f77b4"/>
     <use xlink:href="#ma7c568cb9f" x="440.028101" y="138.964141" style="fill: #1f77b4; stroke: #1f77b4"/>
     <use xlink:href="#ma7c568cb9f" x="488.094512" y="115.885612" style="fill: #1f77b4; stroke: #1f77b4"/>
     <use xlink:href="#ma7c568cb9f" x="536.160922" y="129.181013" style="fill: #1f77b4; stroke: #1f77b4"/>
     <use xlink:href="#ma7c568cb9f" x="584.227333" y="110.250827" style="fill: #1f77b4; stroke: #1f77b4"/>
     <use xlink:href="#ma7c568cb9f" x="632.293743" y="94.161607" style="fill: #1f77b4; stroke: #1f77b4"/>
     <use xlink:href="#ma7c568cb9f" x="680.360154" y="77.486042" style="fill: #1f77b4; stroke: #1f77b4"/>
    </g>
   </g>
   <g id="line2d_19">
    <path d="M 103.563227 170.070373 
L 151.629638 163.461717 
L 199.696048 159.149659 
L 247.762459 150.368762 
L 295.828869 109.768752 
L 343.89528 75.82537 
L 391.96169 33.379488 
L 440.028101 138.131126 
L 488.094512 108.788719 
L 536.160922 127.67464 
L 584.227333 104.313266 
L 632.293743 55.353445 
L 680.360154 18.398425 
" clip-path="url(#p12a098a20b)" style="fill: none; stroke: #ff7f0e; stroke-width: 1.5; stroke-linecap: square"/>
    <defs>
     <path id="m1be2f3a4a0" d="M 0 3 
C 0.795609 3 1.55874 2.683901 2.12132 2.12132 
C 2.683901 1.55874 3 0.795609 3 0 
C 3 -0.795609 2.683901 -1.55874 2.12132 -2.12132 
C 1.55874 -2.683901 0.795609 -3 0 -3 
C -0.795609 -3 -1.55874 -2.683901 -2.12132 -2.12132 
C -2.683901 -1.55874 -3 -0.795609 -3 0 
C -3 0.795609 -2.683901 1.55874 -2.12132 2.12132 
C -1.55874 2.683901 -0.795609 3 0 3 
z
" style="stroke: #ff7f0e"/>
    </defs>
    <g clip-path="url(#p12a098a20b)">
     <use xlink:href="#m1be2f3a4a0" x="103.563227" y="170.070373" style="fill: #ff7f0e; stroke: #ff7f0e"/>
     <use xlink:href="#m1be2f3a4a0" x="151.629638" y="163.461717" style="fill: #ff7f0e; stroke: #ff7f0e"/>
     <use xlink:href="#m1be2f3a4a0" x="199.696048" y="159.149659" style="fill: #ff7f0e; stroke: #ff7f0e"/>
     <use xlink:href="#m1be2f3a4a0" x="247.762459" y="150.368762" style="fill: #ff7f0e; stroke: #ff7f0e"/>
     <use xlink:href="#m1be2f3a4a0" x="295.828869" y="109.768752" style="fill: #ff7f0e; stroke: #ff7f0e"/>
     <use xlink:href="#m1be2f3a4a0" x="343.89528" y="75.82537" style="fill: #ff7f0e; stroke: #ff7f0e"/>
     <use xlink:href="#m1be2f3a4a0" x="391.96169" y="33.379488" style="fill: #ff7f0e; stroke: #ff7f0e"/>
     <use xlink:href="#m1be2f3a4a0" x="440.028101" y="138.131126" style="fill: #ff7f0e; stroke: #ff7f0e"/>
     <use xlink:href="#m1be2f3a4a0" x="488.094512" y="108.788719" style="fill: #ff7f0e; stroke: #ff7f0e"/>
     <use xlink:href="#m1be2f3a4a0" x="536.160922" y="127.67464" style="fill: #ff7f0e; stroke: #ff7f0e"/>
     <use xlink:href="#m1be2f3a4a0" x="584.227333" y="104.313266" style="fill: #ff7f0e; stroke: #ff7f0e"/>
     <use xlink:href="#m1be2f3a4a0" x="632.293743" y="55.353445" style="fill: #ff7f0e; stroke: #ff7f0e"/>
     <use xlink:href="#m1be2f3a4a0" x="680.360154" y="18.398425" style="fill: #ff7f0e; stroke: #ff7f0e"/>
    </g>
   </g>
   <g id="line2d_20">
    <path d="M 103.563227 170.366925 
L 151.629638 163.870379 
L 199.696048 159.779178 
L 247.762459 152.855421 
L 295.828869 117.970996 
L 343.89528 84.800567 
L 391.96169 75.449045 
L 440.028101 144.723769 
L 488.094512 126.368318 
L 536.160922 133.288514 
L 584.227333 110.053805 
L 632.293743 89.876112 
L 680.360154 69.529403 
" clip-path="url(#p12a098a20b)" style="fill: none; stroke: #2ca02c; stroke-width: 1.5; stroke-linecap: square"/>
    <defs>
     <path id="m8392435113" d="M 0 3 
C 0.795609 3 1.55874 2.683901 2.12132 2.12132 
C 2.683901 1.55874 3 0.795609 3 0 
C 3 -0.795609 2.683901 -1.55874 2.12132 -2.12132 
C 1.55874 -2.683901 0.795609 -3 0 -3 
C -0.795609 -3 -1.55874 -2.683901 -2.12132 -2.12132 
C -2.683901 -1.55874 -3 -0.795609 -3 0 
C -3 0.795609 -2.683901 1.55874 -2.12132 2.12132 
C -1.55874 2.683901 -0.795609 3 0 3 
z
" style="stroke: #2ca02c"/>
    </defs>
    <g clip-path="url(#p12a098a20b)">
     <use xlink:href="#m8392435113" x="103.563227" y="170.366925" style="fill: #2ca02c; stroke: #2ca02c"/>
     <use xlink:href="#m8392435113" x="151.629638" y="163.870379" style="fill: #2ca02c; stroke: #2ca02c"/>
     <use xlink:href="#m8392435113" x="199.696048" y="159.779178" style="fill: #2ca02c; stroke: #2ca02c"/>
     <use xlink:href="#m8392435113" x="247.762459" y="152.855421" style="fill: #2ca02c; stroke: #2ca02c"/>
     <use xlink:href="#m8392435113" x="295.828869" y="117.970996" style="fill: #2ca02c; stroke: #2ca02c"/>
     <use xlink:href="#m8392435113" x="343.89528" y="84.800567" style="fill: #2ca02c; stroke: #2ca02c"/>
     <use xlink:href="#m8392435113" x="391.96169" y="75.449045" style="fill: #2ca02c; stroke: #2ca02c"/>
     <use xlink:href="#m8392435113" x="440.028101" y="144.723769" style="fill: #2ca02c; stroke: #2ca02c"/>
     <use xlink:href="#m8392435113" x="488.094512" y="126.368318" style="fill: #2ca02c; stroke: #2ca02c"/>
     <use xlink:href="#m8392435113" x="536.160922" y="133.288514" style="fill: #2ca02c; stroke: #2ca02c"/>
     <use xlink:href="#m8392435113" x="584.227333" y="110.053805" style="fill: #2ca02c; stroke: #2ca02c"/>
     <use xlink:href="#m8392435113" x="632.293743" y="89.876112" style="fill: #2ca02c; stroke: #2ca02c"/>
     <use xlink:href="#m8392435113" x="680.360154" y="69.529403" style="fill: #2ca02c; stroke: #2ca02c"/>
    </g>
   </g>
   <g id="line2d_21">
    <path d="M 103.563227 170.053369 
L 151.629638 163.521264 
L 199.696048 158.298204 
L 247.762459 150.880093 
L 295.828869 109.990494 
L 343.89528 91.506671 
L 391.96169 71.554014 
L 440.028101 139.933779 
L 488.094512 122.05367 
L 536.160922 129.141556 
L 584.227333 107.417308 
L 632.293743 84.794406 
L 680.360154 61.658027 
" clip-path="url(#p12a098a20b)" style="fill: none; stroke: #d62728; stroke-width: 1.5; stroke-linecap: square"/>
    <defs>
     <path id="m7c0e1b9fd0" d="M 0 3 
C 0.795609 3 1.55874 2.683901 2.12132 2.12132 
C 2.683901 1.55874 3 0.795609 3 0 
C 3 -0.795609 2.683901 -1.55874 2.12132 -2.12132 
C 1.55874 -2.683901 0.795609 -3 0 -3 
C -0.795609 -3 -1.55874 -2.683901 -2.12132 -2.12132 
C -2.683901 -1.55874 -3 -0.795609 -3 0 
C -3 0.795609 -2.683901 1.55874 -2.12132 2.12132 
C -1.55874 2.683901 -0.795609 3 0 3 
z
" style="stroke: #d62728"/>
    </defs>
    <g clip-path="url(#p12a098a20b)">
     <use xlink:href="#m7c0e1b9fd0" x="103.563227" y="170.053369" style="fill: #d62728; stroke: #d62728"/>
     <use xlink:href="#m7c0e1b9fd0" x="151.629638" y="163.521264" style="fill: #d62728; stroke: #d62728"/>
     <use xlink:href="#m7c0e1b9fd0" x="199.696048" y="158.298204" style="fill: #d62728; stroke: #d62728"/>
     <use xlink:href="#m7c0e1b9fd0" x="247.762459" y="150.880093" style="fill: #d62728; stroke: #d62728"/>
     <use xlink:href="#m7c0e1b9fd0" x="295.828869" y="109.990494" style="fill: #d62728; stroke: #d62728"/>
     <use xlink:href="#m7c0e1b9fd0" x="343.89528" y="91.506671" style="fill: #d62728; stroke: #d62728"/>
     <use xlink:href="#m7c0e1b9fd0" x="391.96169" y="71.554014" style="fill: #d62728; stroke: #d62728"/>
     <use xlink:href="#m7c0e1b9fd0" x="440.028101" y="139.933779" style="fill: #d62728; stroke: #d62728"/>
     <use xlink:href="#m7c0e1b9fd0" x="488.094512" y="122.05367" style="fill: #d62728; stroke: #d62728"/>
     <use xlink:href="#m7c0e1b9fd0" x="536.160922" y="129.141556" style="fill: #d62728; stroke: #d62728"/>
     <use xlink:href="#m7c0e1b9fd0" x="584.227333" y="107.417308" style="fill: #d62728; stroke: #d62728"/>
     <use xlink:href="#m7c0e1b9fd0" x="632.293743" y="84.794406" style="fill: #d62728; stroke: #d62728"/>
     <use xlink:href="#m7c0e1b9fd0" x="680.360154" y="61.658027" style="fill: #d62728; stroke: #d62728"/>
    </g>
   </g>
   <g id="patch_3">
    <path d="M 74.723381 177.96535 
L 74.723381 10.8 
" style="fill: none; stroke: #000000; stroke-width: 0.8; stroke-linejoin: miter; stroke-linecap: square"/>
   </g>
   <g id="patch_4">
    <path d="M 709.2 177.96535 
L 709.2 10.8 
" style="fill: none; stroke: #000000; stroke-width: 0.8; stroke-linejoin: miter; stroke-linecap: square"/>
   </g>
   <g id="patch_5">
    <path d="M 74.723381 177.96535 
L 709.2 177.96535 
" style="fill: none; stroke: #000000; stroke-width: 0.8; stroke-linejoin: miter; stroke-linecap: square"/>
   </g>
   <g id="patch_6">
    <path d="M 74.723381 10.8 
L 709.2 10.8 
" style="fill: none; stroke: #000000; stroke-width: 0.8; stroke-linejoin: miter; stroke-linecap: square"/>
   </g>
   <g id="legend_1">
    <g id="patch_7">
     <path d="M 81.723381 78.803125 
L 132.518693 78.803125 
Q 134.518693 78.803125 134.518693 76.803125 
L 134.518693 17.8 
Q 134.518693 15.8 132.518693 15.8 
L 81.723381 15.8 
Q 79.723381 15.8 79.723381 17.8 
L 79.723381 76.803125 
Q 79.723381 78.803125 81.723381 78.803125 
z
" style="fill: #ffffff; opacity: 0.8; stroke: #cccccc; stroke-linejoin: miter"/>
    </g>
    <g id="line2d_22">
     <path d="M 83.723381 23.898438 
L 93.723381 23.898438 
L 103.723381 23.898438 
" style="fill: none; stroke: #1f77b4; stroke-width: 1.5; stroke-linecap: square"/>
     <g>
      <use xlink:href="#ma7c568cb9f" x="93.723381" y="23.898438" style="fill: #1f77b4; stroke: #1f77b4"/>
     </g>
    </g>
    <g id="text_19">
     <!-- BL2 -->
     <g transform="translate(111.723381 27.398438) scale(0.1 -0.1)">
      <defs>
       <path id="DejaVuSans-25" d="M 1259 2228 
L 1259 519 
L 2272 519 
Q 2781 519 3026 730 
Q 3272 941 3272 1375 
Q 3272 1813 3026 2020 
Q 2781 2228 2272 2228 
L 1259 2228 
z
M 1259 4147 
L 1259 2741 
L 2194 2741 
Q 2656 2741 2882 2914 
Q 3109 3088 3109 3444 
Q 3109 3797 2882 3972 
Q 2656 4147 2194 4147 
L 1259 4147 
z
M 628 4666 
L 2241 4666 
Q 2963 4666 3353 4366 
Q 3744 4066 3744 3513 
Q 3744 3084 3544 2831 
Q 3344 2578 2956 2516 
Q 3422 2416 3680 2098 
Q 3938 1781 3938 1306 
Q 3938 681 3513 340 
Q 3088 0 2303 0 
L 628 0 
L 628 4666 
z
" transform="scale(0.015625)"/>
      </defs>
      <use xlink:href="#DejaVuSans-25"/>
      <use xlink:href="#DejaVuSans-2f" transform="translate(68.609375 0)"/>
      <use xlink:href="#DejaVuSans-15" transform="translate(124.328125 0)"/>
     </g>
    </g>
    <g id="line2d_23">
     <path d="M 83.723381 38.899219 
L 93.723381 38.899219 
L 103.723381 38.899219 
" style="fill: none; stroke: #ff7f0e; stroke-width: 1.5; stroke-linecap: square"/>
     <g>
      <use xlink:href="#m1be2f3a4a0" x="93.723381" y="38.899219" style="fill: #ff7f0e; stroke: #ff7f0e"/>
     </g>
    </g>
    <g id="text_20">
     <!-- BL3 -->
     <g transform="translate(111.723381 42.399219) scale(0.1 -0.1)">
      <use xlink:href="#DejaVuSans-25"/>
      <use xlink:href="#DejaVuSans-2f" transform="translate(68.609375 0)"/>
      <use xlink:href="#DejaVuSans-16" transform="translate(124.328125 0)"/>
     </g>
    </g>
    <g id="line2d_24">
     <path d="M 83.723381 53.9 
L 93.723381 53.9 
L 103.723381 53.9 
" style="fill: none; stroke: #2ca02c; stroke-width: 1.5; stroke-linecap: square"/>
     <g>
      <use xlink:href="#m8392435113" x="93.723381" y="53.9" style="fill: #2ca02c; stroke: #2ca02c"/>
     </g>
    </g>
    <g id="text_21">
     <!-- BL4 -->
     <g transform="translate(111.723381 57.4) scale(0.1 -0.1)">
      <use xlink:href="#DejaVuSans-25"/>
      <use xlink:href="#DejaVuSans-2f" transform="translate(68.609375 0)"/>
      <use xlink:href="#DejaVuSans-17" transform="translate(124.328125 0)"/>
     </g>
    </g>
    <g id="line2d_25">
     <path d="M 83.723381 68.900781 
L 93.723381 68.900781 
L 103.723381 68.900781 
" style="fill: none; stroke: #d62728; stroke-width: 1.5; stroke-linecap: square"/>
     <g>
      <use xlink:href="#m7c0e1b9fd0" x="93.723381" y="68.900781" style="fill: #d62728; stroke: #d62728"/>
     </g>
    </g>
    <g id="text_22">
     <!-- BL5 -->
     <g transform="translate(111.723381 72.400781) scale(0.1 -0.1)">
      <defs>
       <path id="DejaVuSans-18" d="M 691 4666 
L 3169 4666 
L 3169 4134 
L 1269 4134 
L 1269 2991 
Q 1406 3038 1543 3061 
Q 1681 3084 1819 3084 
Q 2600 3084 3056 2656 
Q 3513 2228 3513 1497 
Q 3513 744 3044 326 
Q 2575 -91 1722 -91 
Q 1428 -91 1123 -41 
Q 819 9 494 109 
L 494 744 
Q 775 591 1075 516 
Q 1375 441 1709 441 
Q 2250 441 2565 725 
Q 2881 1009 2881 1497 
Q 2881 1984 2565 2268 
Q 2250 2553 1709 2553 
Q 1456 2553 1204 2497 
Q 953 2441 691 2322 
L 691 4666 
z
" transform="scale(0.015625)"/>
      </defs>
      <use xlink:href="#DejaVuSans-25"/>
      <use xlink:href="#DejaVuSans-2f" transform="translate(68.609375 0)"/>
      <use xlink:href="#DejaVuSans-18" transform="translate(124.328125 0)"/>
     </g>
    </g>
   </g>
  </g>
 </g>
 <defs>
  <clipPath id="p12a098a20b">
   <rect x="74.723381" y="10.8" width="634.476619" height="167.16535"/>
  </clipPath>
 </defs>
</svg>
