<?xml version="1.0" encoding="UTF-8" standalone="no"?>
<!DOCTYPE svg PUBLIC "-//W3C//DTD SVG 1.1//EN"
 "http://www.w3.org/Graphics/SVG/1.1/DTD/svg11.dtd">
<!-- Generated by graphviz version 2.43.0 (0)
 -->
<!-- Title: single_stream_block Pages: 1 -->
<svg width="769pt" height="1507pt"
 viewBox="0.00 0.00 769.39 1507.39" xmlns="http://www.w3.org/2000/svg" xmlns:xlink="http://www.w3.org/1999/xlink">
<g id="graph0" class="graph" transform="scale(1 1) rotate(0) translate(4 1503.39)">
<title>single_stream_block</title>
<polygon fill="white" stroke="transparent" points="-4,4 -4,-1503.39 765.39,-1503.39 765.39,4 -4,4"/>
<!-- layernorm -->
<g id="node1" class="node">
<title>layernorm</title>
<ellipse fill="#cfe8ff" stroke="black" cx="194" cy="-1401.18" rx="60.21" ry="21.43"/>
<text text-anchor="middle" x="194" y="-1404.18" font-family="Helvetica,sans-Serif" font-size="10.00">layernorm</text>
<text text-anchor="middle" x="194" y="-1393.18" font-family="Helvetica,sans-Serif" font-size="10.00">(LN over H*D)</text>
</g>
<!-- LN_Y_hbm -->
<g id="node16" class="node">
<title>LN_Y_hbm</title>
<polygon fill="#e8e8e8" stroke="black" points="232,-1338.97 164,-1338.97 164,-1302.97 232,-1302.97 232,-1338.97"/>
<text text-anchor="middle" x="198" y="-1323.97" font-family="Helvetica,sans-Serif" font-size="10.00">LN_Y_hbm</text>
<text text-anchor="middle" x="198" y="-1312.97" font-family="Helvetica,sans-Serif" font-size="10.00">[S, H*D]</text>
</g>
<!-- layernorm&#45;&gt;LN_Y_hbm -->
<g id="edge3" class="edge">
<title>layernorm&#45;&gt;LN_Y_hbm</title>
<path fill="none" stroke="black" d="M195.05,-1379.63C195.52,-1370.39 196.09,-1359.35 196.6,-1349.42"/>
<polygon fill="black" stroke="black" points="200.1,-1349.37 197.12,-1339.21 193.11,-1349.02 200.1,-1349.37"/>
</g>
<!-- modulate -->
<g id="node2" class="node">
<title>modulate</title>
<ellipse fill="#cfe8ff" stroke="black" cx="299" cy="-1231.75" rx="73.58" ry="21.43"/>
<text text-anchor="middle" x="299" y="-1234.75" font-family="Helvetica,sans-Serif" font-size="10.00">modulate</text>
<text text-anchor="middle" x="299" y="-1223.75" font-family="Helvetica,sans-Serif" font-size="10.00">(1+scale)*x+shift</text>
</g>
<!-- MOD_Y_hbm -->
<g id="node17" class="node">
<title>MOD_Y_hbm</title>
<polygon fill="#e8e8e8" stroke="black" points="551.5,-1169.54 426.5,-1169.54 426.5,-1133.54 551.5,-1133.54 551.5,-1169.54"/>
<text text-anchor="middle" x="489" y="-1154.54" font-family="Helvetica,sans-Serif" font-size="10.00">MOD_Y_hbm &#160;(x_mod)</text>
<text text-anchor="middle" x="489" y="-1143.54" font-family="Helvetica,sans-Serif" font-size="10.00">[S, H*D]</text>
</g>
<!-- modulate&#45;&gt;MOD_Y_hbm -->
<g id="edge6" class="edge">
<title>modulate&#45;&gt;MOD_Y_hbm</title>
<path fill="none" stroke="black" d="M339.76,-1213.98C368.61,-1202.1 407.51,-1186.09 438.36,-1173.39"/>
<polygon fill="black" stroke="black" points="439.74,-1176.61 447.65,-1169.56 437.07,-1170.13 439.74,-1176.61"/>
</g>
<!-- linear_q -->
<g id="node3" class="node">
<title>linear_q</title>
<ellipse fill="#cfe8ff" stroke="black" cx="631" cy="-1071.33" rx="56.64" ry="21.43"/>
<text text-anchor="middle" x="631" y="-1074.33" font-family="Helvetica,sans-Serif" font-size="10.00">linear_q</text>
<text text-anchor="middle" x="631" y="-1063.33" font-family="Helvetica,sans-Serif" font-size="10.00">GEMM +bias</text>
</g>
<!-- Q_hbm -->
<g id="node18" class="node">
<title>Q_hbm</title>
<polygon fill="#e8e8e8" stroke="black" points="700,-1009.11 644,-1009.11 644,-973.11 700,-973.11 700,-1009.11"/>
<text text-anchor="middle" x="672" y="-994.11" font-family="Helvetica,sans-Serif" font-size="10.00">Q_hbm</text>
<text text-anchor="middle" x="672" y="-983.11" font-family="Helvetica,sans-Serif" font-size="10.00">[S, H*D]</text>
</g>
<!-- linear_q&#45;&gt;Q_hbm -->
<g id="edge15" class="edge">
<title>linear_q&#45;&gt;Q_hbm</title>
<path fill="none" stroke="black" d="M641.56,-1050.19C646.64,-1040.48 652.81,-1028.72 658.26,-1018.33"/>
<polygon fill="black" stroke="black" points="661.46,-1019.75 663.01,-1009.27 655.26,-1016.5 661.46,-1019.75"/>
</g>
<!-- linear_k -->
<g id="node4" class="node">
<title>linear_k</title>
<ellipse fill="#cfe8ff" stroke="black" cx="493" cy="-1071.33" rx="56.64" ry="21.43"/>
<text text-anchor="middle" x="493" y="-1074.33" font-family="Helvetica,sans-Serif" font-size="10.00">linear_k</text>
<text text-anchor="middle" x="493" y="-1063.33" font-family="Helvetica,sans-Serif" font-size="10.00">GEMM +bias</text>
</g>
<!-- K_hbm -->
<g id="node19" class="node">
<title>K_hbm</title>
<polygon fill="#e8e8e8" stroke="black" points="504,-1009.11 448,-1009.11 448,-973.11 504,-973.11 504,-1009.11"/>
<text text-anchor="middle" x="476" y="-994.11" font-family="Helvetica,sans-Serif" font-size="10.00">K_hbm</text>
<text text-anchor="middle" x="476" y="-983.11" font-family="Helvetica,sans-Serif" font-size="10.00">[S, H*D]</text>
</g>
<!-- linear_k&#45;&gt;K_hbm -->
<g id="edge16" class="edge">
<title>linear_k&#45;&gt;K_hbm</title>
<path fill="none" stroke="black" d="M488.53,-1049.78C486.5,-1040.44 484.07,-1029.26 481.9,-1019.25"/>
<polygon fill="black" stroke="black" points="485.29,-1018.38 479.75,-1009.35 478.45,-1019.87 485.29,-1018.38"/>
</g>
<!-- linear_v -->
<g id="node5" class="node">
<title>linear_v</title>
<ellipse fill="#cfe8ff" stroke="black" cx="355" cy="-1071.33" rx="56.64" ry="21.43"/>
<text text-anchor="middle" x="355" y="-1074.33" font-family="Helvetica,sans-Serif" font-size="10.00">linear_v</text>
<text text-anchor="middle" x="355" y="-1063.33" font-family="Helvetica,sans-Serif" font-size="10.00">GEMM +bias</text>
</g>
<!-- V_hbm -->
<g id="node20" class="node">
<title>V_hbm</title>
<polygon fill="#e8e8e8" stroke="black" points="383,-953.11 327,-953.11 327,-917.11 383,-917.11 383,-953.11"/>
<text text-anchor="middle" x="355" y="-938.11" font-family="Helvetica,sans-Serif" font-size="10.00">V_hbm</text>
<text text-anchor="middle" x="355" y="-927.11" font-family="Helvetica,sans-Serif" font-size="10.00">[S, H*D]</text>
</g>
<!-- linear_v&#45;&gt;V_hbm -->
<g id="edge17" class="edge">
<title>linear_v&#45;&gt;V_hbm</title>
<path fill="none" stroke="black" d="M355,-1049.94C355,-1026.84 355,-989.08 355,-963.44"/>
<polygon fill="black" stroke="black" points="358.5,-963.27 355,-953.27 351.5,-963.27 358.5,-963.27"/>
</g>
<!-- linear_mlp -->
<g id="node6" class="node">
<title>linear_mlp</title>
<ellipse fill="#cfe8ff" stroke="black" cx="217" cy="-1071.33" rx="56.64" ry="21.43"/>
<text text-anchor="middle" x="217" y="-1074.33" font-family="Helvetica,sans-Serif" font-size="10.00">linear_mlp</text>
<text text-anchor="middle" x="217" y="-1063.33" font-family="Helvetica,sans-Serif" font-size="10.00">GEMM +bias</text>
</g>
<!-- MLP_hbm -->
<g id="node21" class="node">
<title>MLP_hbm</title>
<polygon fill="#e8e8e8" stroke="black" points="277,-1009.11 167,-1009.11 167,-973.11 277,-973.11 277,-1009.11"/>
<text text-anchor="middle" x="222" y="-994.11" font-family="Helvetica,sans-Serif" font-size="10.00">MLP_hbm &#160;(mlp_in)</text>
<text text-anchor="middle" x="222" y="-983.11" font-family="Helvetica,sans-Serif" font-size="10.00">[S, mlp_dim]</text>
</g>
<!-- linear_mlp&#45;&gt;MLP_hbm -->
<g id="edge18" class="edge">
<title>linear_mlp&#45;&gt;MLP_hbm</title>
<path fill="none" stroke="black" d="M218.31,-1049.78C218.9,-1040.54 219.61,-1029.5 220.25,-1019.56"/>
<polygon fill="black" stroke="black" points="223.75,-1019.56 220.9,-1009.35 216.77,-1019.11 223.75,-1019.56"/>
</g>
<!-- qknorm_q -->
<g id="node7" class="node">
<title>qknorm_q</title>
<ellipse fill="#cfe8ff" stroke="black" cx="672" cy="-875.9" rx="67.35" ry="21.43"/>
<text text-anchor="middle" x="672" y="-878.9" font-family="Helvetica,sans-Serif" font-size="10.00">qknorm_q</text>
<text text-anchor="middle" x="672" y="-867.9" font-family="Helvetica,sans-Serif" font-size="10.00">RMSNorm /head</text>
</g>
<!-- QKN_Q_Y_hbm -->
<g id="node22" class="node">
<title>QKN_Q_Y_hbm</title>
<polygon fill="#e8e8e8" stroke="black" points="746.5,-772.26 637.5,-772.26 637.5,-736.26 746.5,-736.26 746.5,-772.26"/>
<text text-anchor="middle" x="692" y="-757.26" font-family="Helvetica,sans-Serif" font-size="10.00">QKN_Q_Y_hbm</text>
<text text-anchor="middle" x="692" y="-746.26" font-family="Helvetica,sans-Serif" font-size="10.00">[S, H*D] &#160;normed q</text>
</g>
<!-- qknorm_q&#45;&gt;QKN_Q_Y_hbm -->
<g id="edge23" class="edge">
<title>qknorm_q&#45;&gt;QKN_Q_Y_hbm</title>
<path fill="none" stroke="black" d="M675.39,-854.61C678.71,-834.78 683.77,-804.48 687.44,-782.55"/>
<polygon fill="black" stroke="black" points="690.91,-782.99 689.11,-772.54 684.01,-781.83 690.91,-782.99"/>
</g>
<!-- qknorm_k -->
<g id="node8" class="node">
<title>qknorm_k</title>
<ellipse fill="#cfe8ff" stroke="black" cx="476" cy="-875.9" rx="67.35" ry="21.43"/>
<text text-anchor="middle" x="476" y="-878.9" font-family="Helvetica,sans-Serif" font-size="10.00">qknorm_k</text>
<text text-anchor="middle" x="476" y="-867.9" font-family="Helvetica,sans-Serif" font-size="10.00">RMSNorm /head</text>
</g>
<!-- QKN_K_Y_hbm -->
<g id="node23" class="node">
<title>QKN_K_Y_hbm</title>
<polygon fill="#e8e8e8" stroke="black" points="504.5,-772.26 395.5,-772.26 395.5,-736.26 504.5,-736.26 504.5,-772.26"/>
<text text-anchor="middle" x="450" y="-757.26" font-family="Helvetica,sans-Serif" font-size="10.00">QKN_K_Y_hbm</text>
<text text-anchor="middle" x="450" y="-746.26" font-family="Helvetica,sans-Serif" font-size="10.00">[S, H*D] &#160;normed k</text>
</g>
<!-- qknorm_k&#45;&gt;QKN_K_Y_hbm -->
<g id="edge24" class="edge">
<title>qknorm_k&#45;&gt;QKN_K_Y_hbm</title>
<path fill="none" stroke="black" d="M471.59,-854.61C467.28,-834.78 460.7,-804.48 455.93,-782.55"/>
<polygon fill="black" stroke="black" points="459.3,-781.57 453.76,-772.54 452.46,-783.06 459.3,-781.57"/>
</g>
<!-- rope_q -->
<g id="node9" class="node">
<title>rope_q</title>
<ellipse fill="#cfe8ff" stroke="black" cx="594" cy="-665.05" rx="58.88" ry="21.43"/>
<text text-anchor="middle" x="594" y="-668.05" font-family="Helvetica,sans-Serif" font-size="10.00">rope_q</text>
<text text-anchor="middle" x="594" y="-657.05" font-family="Helvetica,sans-Serif" font-size="10.00">rotary embed</text>
</g>
<!-- ROPE_Q_Y_hbm -->
<g id="node24" class="node">
<title>ROPE_Q_Y_hbm</title>
<polygon fill="#e8e8e8" stroke="black" points="643.5,-583.84 536.5,-583.84 536.5,-547.84 643.5,-547.84 643.5,-583.84"/>
<text text-anchor="middle" x="590" y="-568.84" font-family="Helvetica,sans-Serif" font-size="10.00">ROPE_Q_Y_hbm</text>
<text text-anchor="middle" x="590" y="-557.84" font-family="Helvetica,sans-Serif" font-size="10.00">[S, H*D] &#160;rotated q</text>
</g>
<!-- rope_q&#45;&gt;ROPE_Q_Y_hbm -->
<g id="edge29" class="edge">
<title>rope_q&#45;&gt;ROPE_Q_Y_hbm</title>
<path fill="none" stroke="black" d="M593.15,-643.43C592.56,-629.03 591.76,-609.66 591.12,-594"/>
<polygon fill="black" stroke="black" points="594.61,-593.71 590.7,-583.86 587.61,-593.99 594.61,-593.71"/>
</g>
<!-- rope_k -->
<g id="node10" class="node">
<title>rope_k</title>
<ellipse fill="#cfe8ff" stroke="black" cx="452" cy="-665.05" rx="58.88" ry="21.43"/>
<text text-anchor="middle" x="452" y="-668.05" font-family="Helvetica,sans-Serif" font-size="10.00">rope_k</text>
<text text-anchor="middle" x="452" y="-657.05" font-family="Helvetica,sans-Serif" font-size="10.00">rotary embed</text>
</g>
<!-- ROPE_K_Y_hbm -->
<g id="node25" class="node">
<title>ROPE_K_Y_hbm</title>
<polygon fill="#e8e8e8" stroke="black" points="504.5,-583.84 397.5,-583.84 397.5,-547.84 504.5,-547.84 504.5,-583.84"/>
<text text-anchor="middle" x="451" y="-568.84" font-family="Helvetica,sans-Serif" font-size="10.00">ROPE_K_Y_hbm</text>
<text text-anchor="middle" x="451" y="-557.84" font-family="Helvetica,sans-Serif" font-size="10.00">[S, H*D] &#160;rotated k</text>
</g>
<!-- rope_k&#45;&gt;ROPE_K_Y_hbm -->
<g id="edge30" class="edge">
<title>rope_k&#45;&gt;ROPE_K_Y_hbm</title>
<path fill="none" stroke="black" d="M451.79,-643.43C451.64,-629.03 451.44,-609.66 451.28,-594"/>
<polygon fill="black" stroke="black" points="454.78,-593.82 451.18,-583.86 447.78,-593.89 454.78,-593.82"/>
</g>
<!-- flash_attention -->
<g id="node11" class="node">
<title>flash_attention</title>
<ellipse fill="#cfe8ff" stroke="black" cx="390" cy="-476.62" rx="80.72" ry="21.43"/>
<text text-anchor="middle" x="390" y="-479.62" font-family="Helvetica,sans-Serif" font-size="10.00">flash_attention</text>
<text text-anchor="middle" x="390" y="-468.62" font-family="Helvetica,sans-Serif" font-size="10.00">softmax(QK^T/√d)V</text>
</g>
<!-- CONCAT_hbm -->
<g id="node26" class="node">
<title>CONCAT_hbm</title>
<polygon fill="#fff2cc" stroke="black" points="311.5,-395.41 142.5,-395.41 142.5,-354.41 311.5,-354.41 311.5,-395.41"/>
<text text-anchor="middle" x="227" y="-383.41" font-family="Helvetica,sans-Serif" font-size="10.00">CONCAT_hbm</text>
<text text-anchor="middle" x="227" y="-372.41" font-family="Helvetica,sans-Serif" font-size="10.00">[S, H*D + mlp_dim]</text>
<text text-anchor="middle" x="227" y="-361.41" font-family="Helvetica,sans-Serif" font-size="10.00">heads 0..7 = attn | 8..15 = gelu</text>
</g>
<!-- flash_attention&#45;&gt;CONCAT_hbm -->
<g id="edge34" class="edge">
<title>flash_attention&#45;&gt;CONCAT_hbm</title>
<path fill="none" stroke="black" d="M359.34,-456.87C333.46,-441.04 296.19,-418.24 267.8,-400.87"/>
<polygon fill="black" stroke="black" points="269.27,-397.66 258.91,-395.43 265.62,-403.64 269.27,-397.66"/>
<text text-anchor="middle" x="362.5" y="-428.21" font-family="Helvetica,sans-Serif" font-size="9.00"> heads 0..7</text>
<text text-anchor="middle" x="362.5" y="-418.21" font-family="Helvetica,sans-Serif" font-size="9.00"> o_head_offset=0</text>
</g>
<!-- gelu -->
<g id="node12" class="node">
<title>gelu</title>
<ellipse fill="#cfe8ff" stroke="black" cx="229" cy="-813.48" rx="74.49" ry="21.43"/>
<text text-anchor="middle" x="229" y="-816.48" font-family="Helvetica,sans-Serif" font-size="10.00">gelu</text>
<text text-anchor="middle" x="229" y="-805.48" font-family="Helvetica,sans-Serif" font-size="10.00">tanh&#45;approx GELU</text>
</g>
<!-- gelu&#45;&gt;CONCAT_hbm -->
<g id="edge36" class="edge">
<title>gelu&#45;&gt;CONCAT_hbm</title>
<path fill="none" stroke="black" d="M228.36,-792.13C227.77,-771.89 227,-739.93 227,-712.26 227,-712.26 227,-712.26 227,-475.62 227,-452.25 227,-425.8 227,-406.02"/>
<polygon fill="black" stroke="black" points="230.5,-405.77 227,-395.77 223.5,-405.77 230.5,-405.77"/>
<text text-anchor="middle" x="266.5" y="-616.64" font-family="Helvetica,sans-Serif" font-size="9.00"> heads 8..15</text>
<text text-anchor="middle" x="266.5" y="-606.64" font-family="Helvetica,sans-Serif" font-size="9.00"> o_head_offset=8</text>
</g>
<!-- linear2 -->
<g id="node13" class="node">
<title>linear2</title>
<ellipse fill="#cfe8ff" stroke="black" cx="227" cy="-275.42" rx="68.68" ry="28.98"/>
<text text-anchor="middle" x="227" y="-283.92" font-family="Helvetica,sans-Serif" font-size="10.00">linear2</text>
<text text-anchor="middle" x="227" y="-272.92" font-family="Helvetica,sans-Serif" font-size="10.00">GEMM +bias</text>
<text text-anchor="middle" x="227" y="-261.92" font-family="Helvetica,sans-Serif" font-size="10.00">K=CONCAT_DIM</text>
</g>
<!-- LIN2_OUT_hbm -->
<g id="node27" class="node">
<title>LIN2_OUT_hbm</title>
<polygon fill="#e8e8e8" stroke="black" points="261,-205.43 169,-205.43 169,-169.43 261,-169.43 261,-205.43"/>
<text text-anchor="middle" x="215" y="-190.43" font-family="Helvetica,sans-Serif" font-size="10.00">LIN2_OUT_hbm</text>
<text text-anchor="middle" x="215" y="-179.43" font-family="Helvetica,sans-Serif" font-size="10.00">[S, H*D]</text>
</g>
<!-- linear2&#45;&gt;LIN2_OUT_hbm -->
<g id="edge39" class="edge">
<title>linear2&#45;&gt;LIN2_OUT_hbm</title>
<path fill="none" stroke="black" d="M223.07,-246.26C221.7,-236.4 220.15,-225.36 218.79,-215.59"/>
<polygon fill="black" stroke="black" points="222.24,-215.02 217.4,-205.6 215.31,-215.99 222.24,-215.02"/>
</g>
<!-- residual_gate -->
<g id="node14" class="node">
<title>residual_gate</title>
<ellipse fill="#cfe8ff" stroke="black" cx="215" cy="-98.21" rx="58.88" ry="21.43"/>
<text text-anchor="middle" x="215" y="-101.21" font-family="Helvetica,sans-Serif" font-size="10.00">residual_gate</text>
<text text-anchor="middle" x="215" y="-90.21" font-family="Helvetica,sans-Serif" font-size="10.00">x + gate*y</text>
</g>
<!-- BLOCK_OUT_hbm -->
<g id="node28" class="node">
<title>BLOCK_OUT_hbm</title>
<polygon fill="#d5e8d4" stroke="black" points="266.5,-36 163.5,-36 163.5,0 266.5,0 266.5,-36"/>
<text text-anchor="middle" x="215" y="-21" font-family="Helvetica,sans-Serif" font-size="10.00">BLOCK_OUT_hbm</text>
<text text-anchor="middle" x="215" y="-10" font-family="Helvetica,sans-Serif" font-size="10.00">[S, H*D] &#160;FINAL</text>
</g>
<!-- residual_gate&#45;&gt;BLOCK_OUT_hbm -->
<g id="edge43" class="edge">
<title>residual_gate&#45;&gt;BLOCK_OUT_hbm</title>
<path fill="none" stroke="black" d="M215,-76.66C215,-67.42 215,-56.38 215,-46.45"/>
<polygon fill="black" stroke="black" points="218.5,-46.24 215,-36.24 211.5,-46.24 218.5,-46.24"/>
</g>
<!-- X_hbm -->
<g id="node15" class="node">
<title>X_hbm</title>
<polygon fill="#e8e8e8" stroke="black" points="116,-1499.39 0,-1499.39 0,-1463.39 116,-1463.39 116,-1499.39"/>
<text text-anchor="middle" x="58" y="-1484.39" font-family="Helvetica,sans-Serif" font-size="10.00">X_hbm</text>
<text text-anchor="middle" x="58" y="-1473.39" font-family="Helvetica,sans-Serif" font-size="10.00">[S, H*D] &#160;block input</text>
</g>
<!-- X_hbm&#45;&gt;layernorm -->
<g id="edge1" class="edge">
<title>X_hbm&#45;&gt;layernorm</title>
<path fill="none" stroke="black" d="M88.97,-1463.21C100.05,-1457.02 112.61,-1449.94 124,-1443.39 134.31,-1437.47 145.42,-1430.98 155.69,-1424.94"/>
<polygon fill="black" stroke="black" points="157.61,-1427.86 164.45,-1419.77 154.06,-1421.83 157.61,-1427.86"/>
</g>
<!-- X_hbm&#45;&gt;residual_gate -->
<g id="edge40" class="edge">
<title>X_hbm&#45;&gt;residual_gate</title>
<path fill="none" stroke="black" d="M53.45,-1463.13C49.7,-1447.38 45,-1423.38 45,-1402.18 45,-1402.18 45,-1402.18 45,-186.43 45,-137.65 101.08,-116.13 148.83,-106.65"/>
<polygon fill="black" stroke="black" points="149.66,-110.06 158.86,-104.81 148.4,-103.17 149.66,-110.06"/>
<text text-anchor="middle" x="72.5" y="-811.28" font-family="Helvetica,sans-Serif" font-size="9.00"> x (residual)</text>
</g>
<!-- X_hbm&#45;&gt;residual_gate -->
<g id="edge51" class="edge">
<title>X_hbm&#45;&gt;residual_gate</title>
<path fill="none" stroke="#999999" stroke-dasharray="5,2" d="M63.99,-1463.28C65.92,-1457.09 67.85,-1450 69,-1443.39 152.19,-965.83 82.67,-836.84 130,-354.41 138.11,-271.78 122.2,-245.26 156,-169.43 164.75,-149.79 180.68,-131.34 193.78,-118.28"/>
<text text-anchor="middle" x="123" y="-811.28" font-family="Helvetica,sans-Serif" font-size="9.00" fill="#999999">alias</text>
</g>
<!-- LN_Y_hbm&#45;&gt;modulate -->
<g id="edge4" class="edge">
<title>LN_Y_hbm&#45;&gt;modulate</title>
<path fill="none" stroke="black" d="M202.99,-1302.68C206.48,-1293.01 211.98,-1281.26 220,-1272.97 227.38,-1265.34 236.52,-1258.9 245.93,-1253.57"/>
<polygon fill="black" stroke="black" points="247.77,-1256.55 254.99,-1248.79 244.51,-1250.36 247.77,-1256.55"/>
</g>
<!-- LN_Y_hbm&#45;&gt;modulate -->
<g id="edge44" class="edge">
<title>LN_Y_hbm&#45;&gt;modulate</title>
<path fill="none" stroke="#999999" stroke-dasharray="5,2" d="M217.95,-1302.74C234.86,-1288.14 259.07,-1267.23 276.63,-1252.07"/>
<text text-anchor="middle" x="261" y="-1275.77" font-family="Helvetica,sans-Serif" font-size="9.00" fill="#999999">alias</text>
</g>
<!-- MOD_Y_hbm&#45;&gt;linear_q -->
<g id="edge7" class="edge">
<title>MOD_Y_hbm&#45;&gt;linear_q</title>
<path fill="none" stroke="black" d="M539.51,-1133.45C553.37,-1127.91 568.12,-1121.19 581,-1113.54 588.51,-1109.08 596.06,-1103.54 602.94,-1097.98"/>
<polygon fill="black" stroke="black" points="605.25,-1100.61 610.66,-1091.51 600.75,-1095.25 605.25,-1100.61"/>
</g>
<!-- MOD_Y_hbm&#45;&gt;linear_k -->
<g id="edge8" class="edge">
<title>MOD_Y_hbm&#45;&gt;linear_k</title>
<path fill="none" stroke="black" d="M489.89,-1133.18C490.34,-1124.3 490.91,-1113.22 491.43,-1102.95"/>
<polygon fill="black" stroke="black" points="494.94,-1102.85 491.96,-1092.68 487.95,-1102.49 494.94,-1102.85"/>
</g>
<!-- MOD_Y_hbm&#45;&gt;linear_v -->
<g id="edge9" class="edge">
<title>MOD_Y_hbm&#45;&gt;linear_v</title>
<path fill="none" stroke="black" d="M459.59,-1133.38C440.18,-1122.05 414.54,-1107.08 393.5,-1094.8"/>
<polygon fill="black" stroke="black" points="395.2,-1091.74 384.8,-1089.72 391.67,-1097.79 395.2,-1091.74"/>
</g>
<!-- MOD_Y_hbm&#45;&gt;linear_mlp -->
<g id="edge10" class="edge">
<title>MOD_Y_hbm&#45;&gt;linear_mlp</title>
<path fill="none" stroke="black" d="M429.01,-1133.52C388.58,-1122.01 334.06,-1106.45 286,-1092.54 280.83,-1091.05 275.44,-1089.48 270.06,-1087.91"/>
<polygon fill="black" stroke="black" points="271,-1084.54 260.42,-1085.1 269.04,-1091.26 271,-1084.54"/>
</g>
<!-- Q_hbm&#45;&gt;qknorm_q -->
<g id="edge19" class="edge">
<title>Q_hbm&#45;&gt;qknorm_q</title>
<path fill="none" stroke="black" d="M672,-972.92C672,-955.56 672,-928.39 672,-907.38"/>
<polygon fill="black" stroke="black" points="675.5,-907.33 672,-897.33 668.5,-907.33 675.5,-907.33"/>
</g>
<!-- K_hbm&#45;&gt;qknorm_k -->
<g id="edge20" class="edge">
<title>K_hbm&#45;&gt;qknorm_k</title>
<path fill="none" stroke="black" d="M476,-972.92C476,-955.56 476,-928.39 476,-907.38"/>
<polygon fill="black" stroke="black" points="479.5,-907.33 476,-897.33 472.5,-907.33 479.5,-907.33"/>
</g>
<!-- V_hbm&#45;&gt;flash_attention -->
<g id="edge33" class="edge">
<title>V_hbm&#45;&gt;flash_attention</title>
<path fill="none" stroke="black" d="M355,-917.08C355,-893.87 355,-851.03 355,-814.48 355,-814.48 355,-814.48 355,-564.84 355,-544.51 363.29,-523.32 371.79,-506.92"/>
<polygon fill="black" stroke="black" points="375.02,-508.3 376.77,-497.85 368.89,-504.94 375.02,-508.3"/>
<text text-anchor="middle" x="360" y="-709.06" font-family="Helvetica,sans-Serif" font-size="9.00"> V</text>
</g>
<!-- V_hbm&#45;&gt;flash_attention -->
<g id="edge47" class="edge">
<title>V_hbm&#45;&gt;flash_attention</title>
<path fill="none" stroke="#999999" stroke-dasharray="5,2" d="M347.23,-916.91C331.07,-879.22 295.99,-786.33 304,-706.26 311.15,-634.78 308.45,-614.18 336,-547.84 343.9,-528.81 358.33,-510.46 370.28,-497.3"/>
<text text-anchor="middle" x="314" y="-709.06" font-family="Helvetica,sans-Serif" font-size="9.00" fill="#999999">alias</text>
</g>
<!-- MLP_hbm&#45;&gt;gelu -->
<g id="edge35" class="edge">
<title>MLP_hbm&#45;&gt;gelu</title>
<path fill="none" stroke="black" d="M222.68,-972.95C223.86,-943.34 226.3,-882.24 227.78,-845.16"/>
<polygon fill="black" stroke="black" points="231.28,-845.06 228.18,-834.93 224.29,-844.78 231.28,-845.06"/>
</g>
<!-- MLP_hbm&#45;&gt;gelu -->
<g id="edge48" class="edge">
<title>MLP_hbm&#45;&gt;gelu</title>
<path fill="none" stroke="#999999" stroke-dasharray="5,2" d="M277.3,-984.42C406.89,-970.53 721.55,-933.38 752,-897.11 764.13,-882.68 764.81,-868.52 752,-854.69 722.16,-822.47 440.41,-815.97 303.27,-814.73"/>
<text text-anchor="middle" x="713" y="-932.91" font-family="Helvetica,sans-Serif" font-size="9.00" fill="#999999">alias</text>
</g>
<!-- QKN_Q_Y_hbm&#45;&gt;rope_q -->
<g id="edge25" class="edge">
<title>QKN_Q_Y_hbm&#45;&gt;rope_q</title>
<path fill="none" stroke="black" d="M672.64,-736.03C658.45,-723.4 638.95,-706.05 622.92,-691.78"/>
<polygon fill="black" stroke="black" points="625.16,-689.09 615.36,-685.06 620.51,-694.32 625.16,-689.09"/>
</g>
<!-- QKN_K_Y_hbm&#45;&gt;rope_k -->
<g id="edge26" class="edge">
<title>QKN_K_Y_hbm&#45;&gt;rope_k</title>
<path fill="none" stroke="black" d="M450.4,-736.03C450.65,-724.75 451,-709.7 451.3,-696.44"/>
<polygon fill="black" stroke="black" points="454.81,-696.38 451.54,-686.3 447.81,-696.22 454.81,-696.38"/>
</g>
<!-- ROPE_Q_Y_hbm&#45;&gt;flash_attention -->
<g id="edge31" class="edge">
<title>ROPE_Q_Y_hbm&#45;&gt;flash_attention</title>
<path fill="none" stroke="black" d="M550.96,-547.81C519.06,-533.9 473.78,-514.16 439.36,-499.15"/>
<polygon fill="black" stroke="black" points="440.53,-495.84 429.97,-495.05 437.73,-502.26 440.53,-495.84"/>
<text text-anchor="middle" x="506" y="-520.64" font-family="Helvetica,sans-Serif" font-size="9.00"> Q</text>
</g>
<!-- ROPE_Q_Y_hbm&#45;&gt;flash_attention -->
<g id="edge45" class="edge">
<title>ROPE_Q_Y_hbm&#45;&gt;flash_attention</title>
<path fill="none" stroke="#999999" stroke-dasharray="5,2" d="M536.27,-551.89C529.79,-550.46 523.26,-549.07 517,-547.84 489.83,-542.47 412.77,-548.2 394,-527.84 386.77,-519.99 385.52,-508.22 386.2,-498.04"/>
<text text-anchor="middle" x="404" y="-520.64" font-family="Helvetica,sans-Serif" font-size="9.00" fill="#999999">alias</text>
</g>
<!-- ROPE_K_Y_hbm&#45;&gt;flash_attention -->
<g id="edge32" class="edge">
<title>ROPE_K_Y_hbm&#45;&gt;flash_attention</title>
<path fill="none" stroke="black" d="M440.04,-547.71C434.21,-538.73 426.85,-527.6 420,-517.84 417.21,-513.86 414.21,-509.7 411.22,-505.64"/>
<polygon fill="black" stroke="black" points="413.95,-503.45 405.18,-497.5 408.33,-507.62 413.95,-503.45"/>
<text text-anchor="middle" x="431" y="-520.64" font-family="Helvetica,sans-Serif" font-size="9.00"> K</text>
</g>
<!-- ROPE_K_Y_hbm&#45;&gt;flash_attention -->
<g id="edge46" class="edge">
<title>ROPE_K_Y_hbm&#45;&gt;flash_attention</title>
<path fill="none" stroke="#999999" stroke-dasharray="5,2" d="M450.63,-547.69C449.75,-538.28 447.48,-526.76 442,-517.84 436.86,-509.47 429.31,-502.19 421.54,-496.21"/>
<text text-anchor="middle" x="456" y="-520.64" font-family="Helvetica,sans-Serif" font-size="9.00" fill="#999999">alias</text>
</g>
<!-- CONCAT_hbm&#45;&gt;linear2 -->
<g id="edge37" class="edge">
<title>CONCAT_hbm&#45;&gt;linear2</title>
<path fill="none" stroke="black" d="M227,-354.18C227,-342.83 227,-328.18 227,-314.66"/>
<polygon fill="black" stroke="black" points="230.5,-314.62 227,-304.62 223.5,-314.62 230.5,-314.62"/>
<text text-anchor="middle" x="252.5" y="-327.21" font-family="Helvetica,sans-Serif" font-size="9.00"> A (concat)</text>
</g>
<!-- CONCAT_hbm&#45;&gt;linear2 -->
<g id="edge49" class="edge">
<title>CONCAT_hbm&#45;&gt;linear2</title>
<path fill="none" stroke="#999999" stroke-dasharray="5,2" d="M266.2,-354.37C273.36,-348.93 279.87,-342.3 284,-334.41 291.07,-320.9 282.03,-308.47 269.22,-298.61"/>
<text text-anchor="middle" x="296" y="-327.21" font-family="Helvetica,sans-Serif" font-size="9.00" fill="#999999">alias</text>
</g>
<!-- LIN2_OUT_hbm&#45;&gt;residual_gate -->
<g id="edge42" class="edge">
<title>LIN2_OUT_hbm&#45;&gt;residual_gate</title>
<path fill="none" stroke="black" d="M215,-169.2C215,-157.91 215,-142.86 215,-129.61"/>
<polygon fill="black" stroke="black" points="218.5,-129.47 215,-119.47 211.5,-129.47 218.5,-129.47"/>
<text text-anchor="middle" x="219.5" y="-142.23" font-family="Helvetica,sans-Serif" font-size="9.00"> y</text>
</g>
<!-- LIN2_OUT_hbm&#45;&gt;residual_gate -->
<g id="edge50" class="edge">
<title>LIN2_OUT_hbm&#45;&gt;residual_gate</title>
<path fill="none" stroke="#999999" stroke-dasharray="5,2" d="M223.6,-169.16C226.2,-163.08 228.7,-156.09 230,-149.43 231.95,-139.42 229.32,-128.56 225.75,-119.51"/>
<text text-anchor="middle" x="240" y="-142.23" font-family="Helvetica,sans-Serif" font-size="9.00" fill="#999999">alias</text>
</g>
<!-- LN_W -->
<g id="node29" class="node">
<title>LN_W</title>
<polygon fill="#f5f5f5" stroke="black" points="228.5,-1499.39 153.5,-1499.39 153.5,-1463.39 234.5,-1463.39 234.5,-1493.39 228.5,-1499.39"/>
<polyline fill="none" stroke="black" points="228.5,-1499.39 228.5,-1493.39 "/>
<polyline fill="none" stroke="black" points="234.5,-1493.39 228.5,-1493.39 "/>
<text text-anchor="middle" x="194" y="-1478.89" font-family="Helvetica,sans-Serif" font-size="10.00">LN scale/bias</text>
</g>
<!-- LN_W&#45;&gt;layernorm -->
<g id="edge2" class="edge">
<title>LN_W&#45;&gt;layernorm</title>
<path fill="none" stroke="black" d="M194,-1463.04C194,-1454.15 194,-1443.07 194,-1432.81"/>
<polygon fill="black" stroke="black" points="197.5,-1432.54 194,-1422.54 190.5,-1432.54 197.5,-1432.54"/>
</g>
<!-- MOD_W -->
<g id="node30" class="node">
<title>MOD_W</title>
<polygon fill="#f5f5f5" stroke="black" points="335,-1338.97 257,-1338.97 257,-1302.97 341,-1302.97 341,-1332.97 335,-1338.97"/>
<polyline fill="none" stroke="black" points="335,-1338.97 335,-1332.97 "/>
<polyline fill="none" stroke="black" points="341,-1332.97 335,-1332.97 "/>
<text text-anchor="middle" x="299" y="-1318.47" font-family="Helvetica,sans-Serif" font-size="10.00">scale1p / shift</text>
</g>
<!-- MOD_W&#45;&gt;modulate -->
<g id="edge5" class="edge">
<title>MOD_W&#45;&gt;modulate</title>
<path fill="none" stroke="black" d="M299,-1302.74C299,-1291.46 299,-1276.4 299,-1263.15"/>
<polygon fill="black" stroke="black" points="302.5,-1263.01 299,-1253.01 295.5,-1263.01 302.5,-1263.01"/>
</g>
<!-- QKV_W -->
<g id="node31" class="node">
<title>QKV_W</title>
<polygon fill="#f5f5f5" stroke="black" points="395,-1169.54 309,-1169.54 309,-1133.54 401,-1133.54 401,-1163.54 395,-1169.54"/>
<polyline fill="none" stroke="black" points="395,-1169.54 395,-1163.54 "/>
<polyline fill="none" stroke="black" points="401,-1163.54 395,-1163.54 "/>
<text text-anchor="middle" x="355" y="-1154.54" font-family="Helvetica,sans-Serif" font-size="10.00">Wq/Wk/Wv/Wm</text>
<text text-anchor="middle" x="355" y="-1143.54" font-family="Helvetica,sans-Serif" font-size="10.00">+ biases</text>
</g>
<!-- QKV_W&#45;&gt;linear_q -->
<g id="edge11" class="edge">
<title>QKV_W&#45;&gt;linear_q</title>
<path fill="none" stroke="black" d="M401.05,-1137.22C405.42,-1135.97 409.79,-1134.73 414,-1133.54 479.68,-1114.98 496.36,-1111.25 562,-1092.54 567.18,-1091.07 572.57,-1089.51 577.95,-1087.95"/>
<polygon fill="black" stroke="black" points="578.97,-1091.3 587.6,-1085.15 577.02,-1084.58 578.97,-1091.3"/>
</g>
<!-- QKV_W&#45;&gt;linear_k -->
<g id="edge12" class="edge">
<title>QKV_W&#45;&gt;linear_k</title>
<path fill="none" stroke="black" d="M385.28,-1133.38C405.42,-1121.97 432.05,-1106.87 453.8,-1094.55"/>
<polygon fill="black" stroke="black" points="455.81,-1097.43 462.79,-1089.45 452.36,-1091.34 455.81,-1097.43"/>
</g>
<!-- QKV_W&#45;&gt;linear_v -->
<g id="edge13" class="edge">
<title>QKV_W&#45;&gt;linear_v</title>
<path fill="none" stroke="black" d="M355,-1133.18C355,-1124.3 355,-1113.22 355,-1102.95"/>
<polygon fill="black" stroke="black" points="358.5,-1102.68 355,-1092.68 351.5,-1102.68 358.5,-1102.68"/>
</g>
<!-- QKV_W&#45;&gt;linear_mlp -->
<g id="edge14" class="edge">
<title>QKV_W&#45;&gt;linear_mlp</title>
<path fill="none" stroke="black" d="M308.99,-1134.15C295.08,-1128.43 280.05,-1121.43 267,-1113.54 259.53,-1109.02 251.99,-1103.46 245.11,-1097.89"/>
<polygon fill="black" stroke="black" points="247.3,-1095.16 237.39,-1091.42 242.81,-1100.53 247.3,-1095.16"/>
</g>
<!-- QKN_W -->
<g id="node32" class="node">
<title>QKN_W</title>
<polygon fill="#f5f5f5" stroke="black" points="612.5,-1009.11 529.5,-1009.11 529.5,-973.11 618.5,-973.11 618.5,-1003.11 612.5,-1009.11"/>
<polyline fill="none" stroke="black" points="612.5,-1009.11 612.5,-1003.11 "/>
<polyline fill="none" stroke="black" points="618.5,-1003.11 612.5,-1003.11 "/>
<text text-anchor="middle" x="574" y="-988.61" font-family="Helvetica,sans-Serif" font-size="10.00">q/k norm scale</text>
</g>
<!-- QKN_W&#45;&gt;qknorm_q -->
<g id="edge21" class="edge">
<title>QKN_W&#45;&gt;qknorm_q</title>
<path fill="none" stroke="black" d="M588.88,-972.92C604.65,-954.71 629.76,-925.7 648.26,-904.32"/>
<polygon fill="black" stroke="black" points="651.1,-906.4 655,-896.55 645.81,-901.82 651.1,-906.4"/>
</g>
<!-- QKN_W&#45;&gt;qknorm_k -->
<g id="edge22" class="edge">
<title>QKN_W&#45;&gt;qknorm_k</title>
<path fill="none" stroke="black" d="M559.12,-972.92C543.35,-954.71 518.24,-925.7 499.74,-904.32"/>
<polygon fill="black" stroke="black" points="502.19,-901.82 493,-896.55 496.9,-906.4 502.19,-901.82"/>
</g>
<!-- ROPE_W -->
<g id="node33" class="node">
<title>ROPE_W</title>
<polygon fill="#f5f5f5" stroke="black" points="606.5,-772.26 529.5,-772.26 529.5,-736.26 612.5,-736.26 612.5,-766.26 606.5,-772.26"/>
<polyline fill="none" stroke="black" points="606.5,-772.26 606.5,-766.26 "/>
<polyline fill="none" stroke="black" points="612.5,-766.26 606.5,-766.26 "/>
<text text-anchor="middle" x="571" y="-751.76" font-family="Helvetica,sans-Serif" font-size="10.00">cos / sin / &#45;sin</text>
</g>
<!-- ROPE_W&#45;&gt;rope_q -->
<g id="edge27" class="edge">
<title>ROPE_W&#45;&gt;rope_q</title>
<path fill="none" stroke="black" d="M575.54,-736.03C578.55,-724.64 582.57,-709.4 586.09,-696.05"/>
<polygon fill="black" stroke="black" points="589.49,-696.87 588.66,-686.3 582.72,-695.08 589.49,-696.87"/>
</g>
<!-- ROPE_W&#45;&gt;rope_k -->
<g id="edge28" class="edge">
<title>ROPE_W&#45;&gt;rope_k</title>
<path fill="none" stroke="black" d="M547.77,-736.24C530.02,-723.23 505.29,-705.11 485.41,-690.54"/>
<polygon fill="black" stroke="black" points="487.36,-687.62 477.23,-684.54 483.22,-693.27 487.36,-687.62"/>
</g>
<!-- LIN2_W -->
<g id="node34" class="node">
<title>LIN2_W</title>
<polygon fill="#f5f5f5" stroke="black" points="389.5,-392.91 336.5,-392.91 336.5,-356.91 395.5,-356.91 395.5,-386.91 389.5,-392.91"/>
<polyline fill="none" stroke="black" points="389.5,-392.91 389.5,-386.91 "/>
<polyline fill="none" stroke="black" points="395.5,-386.91 389.5,-386.91 "/>
<text text-anchor="middle" x="366" y="-372.41" font-family="Helvetica,sans-Serif" font-size="10.00">W2 + b2</text>
</g>
<!-- LIN2_W&#45;&gt;linear2 -->
<g id="edge38" class="edge">
<title>LIN2_W&#45;&gt;linear2</title>
<path fill="none" stroke="black" d="M349.36,-356.8C339.1,-346.74 325.38,-334.12 312,-324.41 301.72,-316.95 290.17,-309.74 278.98,-303.28"/>
<polygon fill="black" stroke="black" points="280.54,-300.14 270.11,-298.26 277.1,-306.23 280.54,-300.14"/>
</g>
<!-- GATE_W -->
<g id="node35" class="node">
<title>GATE_W</title>
<polygon fill="#f5f5f5" stroke="black" points="334,-205.43 286,-205.43 286,-169.43 340,-169.43 340,-199.43 334,-205.43"/>
<polyline fill="none" stroke="black" points="334,-205.43 334,-199.43 "/>
<polyline fill="none" stroke="black" points="340,-199.43 334,-199.43 "/>
<text text-anchor="middle" x="313" y="-184.93" font-family="Helvetica,sans-Serif" font-size="10.00">gate</text>
</g>
<!-- GATE_W&#45;&gt;residual_gate -->
<g id="edge41" class="edge">
<title>GATE_W&#45;&gt;residual_gate</title>
<path fill="none" stroke="black" d="M293.64,-169.2C279.45,-156.57 259.95,-139.21 243.92,-124.95"/>
<polygon fill="black" stroke="black" points="246.16,-122.26 236.36,-118.22 241.51,-127.49 246.16,-122.26"/>
<text text-anchor="middle" x="281" y="-142.23" font-family="Helvetica,sans-Serif" font-size="9.00"> gate</text>
</g>
</g>
</svg>
